<svg width="64" height="64" viewBox="0 0 64 64" fill="none" xmlns="http://www.w3.org/2000/svg">
<g clip-path="url(#clip0_77_3370)">
<path d="M48.9215 16.364L48.8402 15.1329C47.8975 14.1434 46.5907 13.5835 45.224 13.5835H18.7763C17.4097 13.5835 16.1028 14.1434 15.1602 15.1329V16.364L21.9924 27.6056H43.0983L48.9215 16.364Z" fill="#C3DDFF"/>
<path d="M18.7763 13.5835C17.4097 13.5835 16.1028 14.1434 15.1602 15.1329V16.364L18.5945 22.0149L24.511 13.5835H18.7763Z" fill="#A4CCFF"/>
<path d="M31.9997 13.5835L22.4951 27.6056L23.0877 28.1829H40.546L41.5044 27.6056L31.9997 13.5835Z" fill="#DBEAFF"/>
<path d="M15.1602 15.1328L5.66536 25.0984C5.02136 25.7743 4.66211 26.6719 4.66211 27.6056L5.29036 28.1827H21.5047L22.4955 27.6056L15.1602 15.1328Z" fill="#DBEAFF"/>
<path d="M14.6715 27.6056L18.9281 21.5396L15.1602 15.1328L5.66536 25.0984C5.02136 25.7743 4.66211 26.6719 4.66211 27.6056L5.29036 28.1827H14.9709L14.6715 27.6056Z" fill="#C3DDFF"/>
<path d="M63.0624 18.2388H59.7441C59.2264 18.2388 58.8066 17.819 58.8066 17.3013C58.8066 16.7835 59.2264 16.3638 59.7441 16.3638H63.0624C63.5801 16.3638 63.9999 16.7835 63.9999 17.3013C63.9999 17.819 63.5801 18.2388 63.0624 18.2388Z" fill="#DBEAFF"/>
<path d="M56.8742 12.6347C56.5081 12.2686 56.5081 11.675 56.8742 11.309L59.2206 8.96258C59.5867 8.59646 60.1803 8.59646 60.5463 8.96258C60.9125 9.32871 60.9125 9.92233 60.5463 10.2883L58.2 12.6347C57.8338 13.001 57.2403 13.0008 56.8742 12.6347Z" fill="#DBEAFF"/>
<path d="M52.207 10.702C51.6893 10.702 51.2695 10.2823 51.2695 9.76454V6.44629C51.2695 5.92854 51.6893 5.50879 52.207 5.50879C52.7248 5.50879 53.1445 5.92854 53.1445 6.44629V9.76454C53.1445 10.2823 52.7248 10.702 52.207 10.702Z" fill="#DBEAFF"/>
<path d="M4.25575 18.2388H0.9375C0.41975 18.2388 0 17.819 0 17.3013C0 16.7835 0.41975 16.3638 0.9375 16.3638H4.25575C4.7735 16.3638 5.19325 16.7835 5.19325 17.3013C5.19325 17.819 4.7735 18.2388 4.25575 18.2388Z" fill="#DBEAFF"/>
<path d="M5.80066 12.6348L3.45428 10.2884C3.08816 9.92225 3.08816 9.32863 3.45428 8.96263C3.82041 8.5965 4.41403 8.59638 4.78003 8.96263L7.12641 11.309C7.49253 11.6751 7.49253 12.2688 7.12641 12.6348C6.76041 13.0009 6.16678 13.001 5.80066 12.6348Z" fill="#DBEAFF"/>
<path d="M11.793 10.702C11.2752 10.702 10.8555 10.2823 10.8555 9.76454V6.44629C10.8555 5.92854 11.2752 5.50879 11.793 5.50879C12.3107 5.50879 12.7305 5.92854 12.7305 6.44629V9.76454C12.7305 10.2823 12.3107 10.702 11.793 10.702Z" fill="#DBEAFF"/>
<path d="M59.3383 27.6056C59.3383 26.6721 58.979 25.7744 58.335 25.0984L48.8401 15.1328L41.5049 27.6054L42.234 28.1826H58.859L59.3383 27.6056Z" fill="#DBEAFF"/>
<path d="M4.66211 27.6055C4.66211 28.6532 5.03574 29.6667 5.71599 30.4637L28.1037 56.6936C29.077 57.834 30.501 58.4906 32.0001 58.4906C33.4993 58.4906 34.9232 57.8338 35.8966 56.6936L58.2843 30.4637C58.9646 29.6667 59.3382 28.6532 59.3382 27.6055H4.66211Z" fill="#A4CCFF"/>
<path d="M14.6715 27.6055H4.66211C4.66211 28.6532 5.03586 29.6667 5.71611 30.4637L28.1037 56.6935C28.7649 57.468 29.6341 58.0186 30.5934 58.2927L14.6715 27.6055Z" fill="#8BB3EA"/>
<path d="M31.9996 58.4905C32.4805 58.4905 32.9535 58.4221 33.4065 58.2927L41.5042 27.6055H22.4951L30.5929 58.2927C31.0459 58.4221 31.5187 58.4905 31.9996 58.4905Z" fill="#C3DDFF"/>
</g>
<defs>
<clipPath id="clip0_77_3370">
<rect width="64" height="64" fill="white"/>
</clipPath>
</defs>
</svg>
