<svg width="64" height="64" viewBox="0 0 64 64" fill="none" xmlns="http://www.w3.org/2000/svg">
<path d="M25.5768 56.4707C25.2901 57.1587 24.6178 57.6065 23.8731 57.6065H23.8648L10.378 57.545C9.7208 57.5425 9.11533 57.1905 8.78672 56.6221L7.66416 54.6787L6.05772 51.897C6.05186 51.8872 6.04697 51.8775 6.04209 51.8687C5.7169 51.3037 5.71201 50.6094 6.03086 50.042L8.92295 44.8843C9.25449 44.2959 9.8834 43.9375 10.5553 43.9414L13.6666 43.9781L23.8253 44.0962C24.5689 44.105 25.2335 44.5581 25.5138 45.2461C25.7945 45.9341 25.6344 46.7227 25.109 47.2471L21.5411 50.8164L25.1793 54.4546C25.7086 54.9839 25.8648 55.7803 25.5768 56.4707Z" fill="#00AF5B"/>
<path d="M63.7525 41.8318L62.5943 43.8396L61.0078 46.5866C60.6817 47.1501 60.0835 47.5007 59.4312 47.5095L53.5186 47.5822H53.4956C52.8296 47.5822 52.2144 47.2229 51.8868 46.6408L50.3789 43.9587L45.3848 35.0715C45.0215 34.424 45.0806 33.6213 45.5371 33.0344C45.9927 32.4475 46.7559 32.1911 47.4722 32.3835L52.3482 33.6892L53.6802 28.7195C53.8731 27.9968 54.4839 27.4626 55.2261 27.3669C55.9678 27.2707 56.6944 27.6325 57.066 28.281L63.7564 39.9934C64.0826 40.5632 64.0811 41.2634 63.7525 41.8318Z" fill="#00994C"/>
<path d="M30.5371 2.52832C30.2041 1.96875 29.6011 1.62549 28.9497 1.62549H23.46C22.8032 1.62549 22.1963 1.97412 21.8653 2.54102L15.0689 14.1909C14.6919 14.8374 14.7422 15.6475 15.1963 16.2422C15.6504 16.8369 16.418 17.0986 17.1411 16.9048L22.1113 15.5728L23.4175 20.4482C23.6099 21.166 24.2134 21.6982 24.9488 21.7998C25.0337 21.811 25.1177 21.8169 25.2012 21.8169C25.8462 21.8169 26.4531 21.478 26.7886 20.9121L33.5576 9.49707C33.9024 8.91601 33.9019 8.19336 33.5571 7.6123L30.5371 2.52832Z" fill="#00AF5B"/>
<path d="M23.8008 35.578C23.2075 36.0336 22.3999 36.0863 21.7524 35.7123L19.146 34.2084L13.6665 43.9779L7.66406 54.6786L6.05762 51.8968C6.05176 51.8871 6.04687 51.8773 6.04199 51.8685L0.247559 41.8314C-0.0825195 41.2606 -0.0825195 40.5565 0.247559 39.9857L7.47559 27.4696L4.84912 25.9535C4.20312 25.5804 3.84473 24.8544 3.94238 24.1136C4.03955 23.3739 4.57373 22.7645 5.29492 22.5712L18.6265 18.9999C19.6099 18.7362 20.6226 19.3197 20.8872 20.3041L24.459 33.6361C24.6523 34.3573 24.3926 35.1239 23.8008 35.578Z" fill="#54E360"/>
<path d="M62.5941 43.8396L61.0077 46.5866L55.2133 56.6223C54.8837 57.1931 54.2743 57.5451 53.6146 57.5451H53.6136L39.1615 57.5427V60.5764C39.1615 61.3234 38.7113 61.9958 38.0218 62.2824C37.7933 62.3772 37.5531 62.4226 37.3158 62.4226C36.8353 62.4226 36.3632 62.2346 36.0096 61.8811L26.2509 52.1223C25.5297 51.4011 25.5297 50.2321 26.2509 49.5119L36.0096 39.7522C36.538 39.2238 37.3314 39.0666 38.0218 39.3518C38.7113 39.6374 39.1615 40.3108 39.1615 41.0578V44.0681L50.3788 43.9587L62.5941 43.8396Z" fill="#54E360"/>
<path d="M54.6953 15.6265L51.1235 28.958C50.9023 29.7827 50.1562 30.3267 49.3413 30.3267C49.1826 30.3267 49.0229 30.3057 48.8628 30.2637L35.5312 26.6909C34.8101 26.4976 34.2759 25.8896 34.1782 25.1489C34.0811 24.4092 34.4395 23.6826 35.0854 23.3086L37.6924 21.8032L30.3115 9.37744L25.7061 1.625H40.5391C41.1987 1.625 41.8091 1.97705 42.1392 2.54785L45.5386 8.43994L49.3623 15.0664L51.9888 13.5498C52.6362 13.1758 53.4438 13.2285 54.0371 13.6841C54.6289 14.1382 54.8887 14.9048 54.6953 15.6265Z" fill="#54E360"/>
<path d="M50.3789 43.9587L39.1616 44.0681V41.0578C39.1616 40.3108 38.7114 39.6374 38.022 39.3518C37.3315 39.0666 36.5381 39.2238 36.0098 39.7522L32 43.7624V57.8713L36.0098 61.8811C36.3633 62.2346 36.8354 62.4226 37.3159 62.4226C37.5532 62.4226 37.7935 62.3772 38.022 62.2824C38.7114 61.9958 39.1616 61.3234 39.1616 60.5764V57.5427L53.6138 57.5451H53.6147C54.2744 57.5451 54.8838 57.1931 55.2134 56.6223L61.0078 46.5866L62.5942 43.8396L50.3789 43.9587Z" fill="#43C949"/>
<path d="M54.0371 13.6841C53.4438 13.2285 52.6362 13.1758 51.9888 13.5498L49.3623 15.0664L45.5386 8.43994L42.1392 2.54785C41.8091 1.97705 41.1987 1.625 40.5391 1.625H32V12.2202L37.6924 21.8032L35.0854 23.3086C34.4395 23.6826 34.0811 24.4092 34.1782 25.1489C34.2759 25.8896 34.8101 26.4976 35.5312 26.6909L48.8628 30.2637C49.0229 30.3057 49.1826 30.3267 49.3413 30.3267C50.1562 30.3267 50.9023 29.7827 51.1235 28.958L54.6953 15.6265C54.8887 14.9048 54.6289 14.1382 54.0371 13.6841Z" fill="#43C949"/>
</svg>
