<svg width="64" height="64" viewBox="0 0 64 64" fill="none" xmlns="http://www.w3.org/2000/svg">
<path d="M35.364 26.4162C34.8811 26.9258 34.1985 27.1943 33.4964 27.1508C33.2535 27.1354 27.4803 26.7386 21.5753 23.5566C15.9952 20.5496 9.26142 14.4481 8.87042 2.45612C8.84892 1.80212 9.09929 1.16862 9.56179 0.705874C10.2673 0 11.0953 0 11.4489 0C11.699 0 17.5797 0.0422498 23.6388 3.67537C26.7841 5.56149 29.3991 8.06886 31.4114 11.1281C33.8421 14.8238 35.3846 19.3267 35.9961 24.5113C36.0784 25.2088 35.8467 25.9065 35.364 26.4162Z" fill="#6DC82A"/>
<path d="M31.4856 11.2451C30.4934 13.0764 29.6565 15.1389 29.056 17.4624C28.516 19.0751 27.6914 21.9086 27.0107 25.829C30.6006 26.9525 33.3311 27.1402 33.4965 27.1506C34.1987 27.1942 34.8812 26.9257 35.3641 26.416C35.8469 25.9062 36.0785 25.2086 35.9961 24.5113C35.391 19.3807 33.8726 14.919 31.4856 11.2451Z" fill="#5EAC24"/>
<path d="M33.3341 22.357L28.2356 17.3852L26.8911 10.6854C26.7848 10.1544 26.2681 9.81081 25.737 9.91706C25.206 10.0236 24.8623 10.5404 24.9686 11.0712L25.7493 14.9607L22.9374 12.2187L21.5744 5.42681C21.468 4.89581 20.9512 4.55257 20.4203 4.65844C19.8893 4.76494 19.5455 5.28169 19.6519 5.81256L20.4509 9.79405L13.8894 3.39607C13.5014 3.01807 12.8812 3.02607 12.503 3.41357C12.125 3.80132 12.1329 4.42194 12.5205 4.79981L19.7354 11.8353L14.7024 11.7493C14.1615 11.7346 13.7148 12.1714 13.7054 12.7128C13.6963 13.2542 14.1275 13.7004 14.6689 13.7098L21.7823 13.8314L25.1291 17.0952L20.0192 17.008C19.4827 16.996 19.0315 17.4302 19.0222 17.9715C19.013 18.5129 19.4443 18.9592 19.9857 18.9685L27.1759 19.0913L31.9648 23.761C32.1555 23.9469 32.4024 24.0394 32.649 24.0394C32.904 24.0394 33.1588 23.9404 33.3511 23.7434C33.7295 23.3555 33.7218 22.7349 33.3341 22.357Z" fill="#4E901E"/>
<path d="M58.478 0.739197C57.9952 0.229573 57.3125 -0.0389269 56.6104 0.00457297C56.3675 0.0199479 50.5943 0.416822 44.6893 3.59882C40.1517 6.04394 34.8517 10.5354 32.8192 18.5762C31.7091 21.8453 29.2635 30.7109 29.8355 44.0596C29.885 45.2145 30.8367 46.1175 31.9817 46.1174C32.0127 46.1174 32.044 46.1167 32.0753 46.1154C33.2615 46.0645 34.1818 45.0619 34.1311 43.8755C33.8347 36.9601 34.4041 31.3068 35.1378 27.1351C36.789 27.0405 41.7086 26.5045 46.7528 23.48C49.8982 21.5939 52.5132 19.0865 54.5254 16.0273C56.9562 12.3315 58.4987 7.82868 59.1102 2.64407C59.1924 1.94657 58.9608 1.24895 58.478 0.739197Z" fill="#91DC5A"/>
<path d="M55.3914 3.41313C55.0132 3.0255 54.3925 3.01763 54.005 3.39563L47.4441 9.79349L48.2431 5.81212C48.3494 5.28125 48.0057 4.76462 47.4747 4.658C46.9444 4.552 46.4271 4.89537 46.3206 5.42637L44.9574 12.2182L42.1457 14.9602L42.9263 11.0707C43.0328 10.5399 42.6889 10.0232 42.1579 9.91661C41.6272 9.81036 41.1103 10.154 41.0038 10.685L39.6592 17.3848L34.5606 22.3567C34.1728 22.7347 34.1652 23.3553 34.5431 23.743C34.7353 23.94 34.99 24.0388 35.2452 24.0388C35.492 24.0388 35.739 23.9463 35.9295 23.7605L40.7183 19.0907L47.9088 18.968C48.4502 18.9587 48.8814 18.5125 48.8723 17.971C48.8632 17.4352 48.4261 17.0073 47.8924 17.0073C47.8867 17.0073 47.8809 17.0073 47.8753 17.0075L42.7652 17.0946L46.1121 13.8309L53.2254 13.7092C53.7668 13.7 54.198 13.2537 54.1889 12.7122C54.1798 12.1765 53.7427 11.7486 53.2091 11.7486C53.2033 11.7486 53.1975 11.7486 53.1919 11.7487L48.1589 11.8347L55.3738 4.79925C55.7617 4.42137 55.7694 3.80075 55.3914 3.41313Z" fill="#5EAC24"/>
<path d="M56.1492 51.2655C55.1604 51.2655 54.2369 51.544 53.452 52.0264C52.2928 48.2336 48.7657 45.4746 44.5934 45.4746C44.1304 45.4746 43.6758 45.5096 43.2312 45.5752C41.3399 41.2485 37.0243 38.2236 32.0005 38.2236C26.9766 38.2236 22.661 41.2485 20.7697 45.5752C20.325 45.5096 19.8702 45.4746 19.4075 45.4746C15.2352 45.4746 11.7082 48.2336 10.5489 52.0264C9.76399 51.544 8.84062 51.2655 7.85175 51.2655C5.00238 51.2655 2.69238 53.5755 2.69238 56.4248C2.69238 59.2742 5.00238 61.5842 7.85175 61.5842C9.37875 61.5842 10.7502 60.9205 11.6947 59.8662C13.355 62.3576 16.189 64 19.4074 64C22.0137 64 24.3673 62.9218 26.0503 61.1891C27.8125 62.1701 29.8405 62.7308 32.0005 62.7308C34.1603 62.7308 36.1884 62.17 37.9506 61.1891C39.6338 62.9218 41.9872 64 44.5936 64C47.8119 64 50.646 62.3578 52.3062 59.8662C53.2508 60.9205 54.6223 61.5842 56.1492 61.5842C58.9985 61.5842 61.3085 59.2742 61.3085 56.4248C61.3085 53.5754 58.9985 51.2655 56.1492 51.2655Z" fill="#CC7400"/>
<path d="M38.7362 43.2397C39.9547 43.2397 41.1304 43.4201 42.2414 43.7512C40.0508 40.4225 36.2832 38.2236 32.0005 38.2236C26.9765 38.2236 22.661 41.2485 20.7697 45.5752C20.325 45.5096 19.8702 45.4746 19.4075 45.4746C15.2352 45.4746 11.7082 48.2336 10.5489 52.0264C9.76399 51.544 8.84062 51.2655 7.85175 51.2655C5.00238 51.2655 2.69238 53.5755 2.69238 56.4248C2.69238 59.2742 5.00238 61.5842 7.85175 61.5842C9.37875 61.5842 10.7502 60.9205 11.6947 59.8662C13.355 62.3576 16.189 64 19.4074 64C22.0137 64 24.3673 62.9218 26.0503 61.1891C26.8188 61.617 27.6378 61.9646 28.4962 62.221C27.2247 60.2896 26.4827 57.9786 26.4827 55.4933C26.4827 48.726 31.9688 43.2397 38.7362 43.2397Z" fill="#AA6100"/>
<path d="M36.8737 54.848C38.1005 54.848 39.0951 53.8535 39.0951 52.6266C39.0951 51.3998 38.1005 50.4053 36.8737 50.4053C35.6469 50.4053 34.6523 51.3998 34.6523 52.6266C34.6523 53.8535 35.6469 54.848 36.8737 54.848Z" fill="#AA6100"/>
<path d="M45.8298 60.0795C47.0566 60.0795 48.0511 59.0849 48.0511 57.8581C48.0511 56.6313 47.0566 55.6367 45.8298 55.6367C44.6029 55.6367 43.6084 56.6313 43.6084 57.8581C43.6084 59.0849 44.6029 60.0795 45.8298 60.0795Z" fill="#AA6100"/>
<path d="M44.4641 51.1118C44.9362 51.1118 45.3189 50.7292 45.3189 50.2571C45.3189 49.785 44.9362 49.4023 44.4641 49.4023C43.9921 49.4023 43.6094 49.785 43.6094 50.2571C43.6094 50.7292 43.9921 51.1118 44.4641 51.1118Z" fill="#AA6100"/>
<path d="M32.0003 59.5674C32.4723 59.5674 32.855 59.1847 32.855 58.7127C32.855 58.2406 32.4723 57.8579 32.0003 57.8579C31.5282 57.8579 31.1455 58.2406 31.1455 58.7127C31.1455 59.1847 31.5282 59.5674 32.0003 59.5674Z" fill="#AA6100"/>
<path d="M34.6516 47.917C35.1237 47.917 35.5064 47.5343 35.5064 47.0623C35.5064 46.5902 35.1237 46.2075 34.6516 46.2075C34.1796 46.2075 33.7969 46.5902 33.7969 47.0623C33.7969 47.5343 34.1796 47.917 34.6516 47.917Z" fill="#AA6100"/>
<path d="M53.0442 55.7036C53.5163 55.7036 53.8989 55.321 53.8989 54.8489C53.8989 54.3768 53.5163 53.9941 53.0442 53.9941C52.5721 53.9941 52.1895 54.3768 52.1895 54.8489C52.1895 55.321 52.5721 55.7036 53.0442 55.7036Z" fill="#AA6100"/>
<path d="M48.0514 41.8734C49.2783 41.8734 50.2728 40.8789 50.2728 39.652C50.2728 38.4252 49.2783 37.4307 48.0514 37.4307C46.8246 37.4307 45.8301 38.4252 45.8301 39.652C45.8301 40.8789 46.8246 41.8734 48.0514 41.8734Z" fill="#CC7400"/>
<path d="M53.0432 45.4737C53.5153 45.4737 53.898 45.091 53.898 44.6189C53.898 44.1468 53.5153 43.7642 53.0432 43.7642C52.5712 43.7642 52.1885 44.1468 52.1885 44.6189C52.1885 45.091 52.5712 45.4737 53.0432 45.4737Z" fill="#CC7400"/>
<path d="M53.0432 41.3618C53.5153 41.3618 53.898 40.9792 53.898 40.5071C53.898 40.035 53.5153 39.6523 53.0432 39.6523C52.5712 39.6523 52.1885 40.035 52.1885 40.5071C52.1885 40.9792 52.5712 41.3618 53.0432 41.3618Z" fill="#CC7400"/>
<path d="M14.0661 41.0892C15.2929 41.0892 16.2875 40.0947 16.2875 38.8679C16.2875 37.641 15.2929 36.6465 14.0661 36.6465C12.8393 36.6465 11.8447 37.641 11.8447 38.8679C11.8447 40.0947 12.8393 41.0892 14.0661 41.0892Z" fill="#AA6100"/>
<path d="M10.3772 44.6192C10.8493 44.6192 11.232 44.2365 11.232 43.7644C11.232 43.2923 10.8493 42.9097 10.3772 42.9097C9.90514 42.9097 9.52246 43.2923 9.52246 43.7644C9.52246 44.2365 9.90514 44.6192 10.3772 44.6192Z" fill="#AA6100"/>
</svg>
