<svg width="64" height="64" viewBox="0 0 64 64" fill="none" xmlns="http://www.w3.org/2000/svg">
<g clip-path="url(#clip0_77_3868)">
<path d="M32 0C31.3151 0 30.6353 0.0215 29.961 0.063875L3.31912 17.7921C1.1945 22.0729 0 26.897 0 32C0 41.3595 4.01813 49.7805 10.4236 55.632C10.4236 55.632 20.8524 62.8052 32 62.8052C46.9156 62.8052 62.4315 49.6731 62.4315 32C62.4315 11.0451 42.494 1.76038 42.494 1.76038C39.2066 0.61975 35.6756 0 32 0Z" fill="#008CDF"/>
<path d="M63.6868 27.5046L55.9291 26.6191C55.9291 44.2923 41.6022 58.6191 23.9291 58.6191C19.1025 58.6191 14.5277 57.5455 10.4238 55.6319C12.9083 57.9016 15.7521 59.7848 18.8598 61.1861L20.7441 61.0811L23.1335 62.7551C25.9491 63.5654 28.924 63.9999 32.0003 63.9999C49.6735 63.9999 64.0003 49.673 64.0003 31.9999C64.0003 30.474 63.8935 28.9733 63.6868 27.5046Z" fill="#0069D0"/>
<path d="M45.5386 2.996C44.5502 2.534 43.5341 2.121 42.4936 1.76025L39.6635 4.24925C38.8884 4.912 38.703 6.05525 39.2731 6.94075C39.8212 7.792 40.9294 8.089 41.862 7.69513L42.4347 7.45313C43.1381 7.15613 43.9621 7.26363 44.5324 7.7715C45.5401 8.66925 45.3645 10.2559 44.2337 10.925L37.5876 14.8576C36.2895 15.6258 35.465 17.0221 35.492 18.5303C35.52 20.0968 36.3977 21.3726 38.1617 21.5351C41.812 21.8714 41.2865 18.0039 43.4305 18.0039H50.7837C51.903 18.0039 52.8736 18.8408 52.9706 19.9559C53.0811 21.2264 52.0825 22.2918 50.835 22.2918H42.0175C38.5879 22.2918 35.5971 24.9346 35.4941 28.3628C35.3877 31.91 38.2315 34.819 41.7549 34.819H42.6516C44.3619 34.819 45.7484 36.2055 45.7484 37.9158V48.9206C45.7484 49.2473 45.8057 49.5694 45.9136 49.87L48.5034 49.8143L56.5667 36.7011L57.6031 29.1859L60.2319 25.3798C60.232 25.3799 55.1504 7.48888 45.5386 2.996Z" fill="#98DB7C"/>
<path d="M63.6866 27.5046C62.1587 16.6252 55.1368 7.49297 45.5391 2.99609C51.9173 8.84584 55.9288 17.2823 55.9288 26.6191C55.9288 35.7826 52.0869 44.0363 45.9142 49.87C46.2926 50.9511 47.3656 51.7017 48.6126 51.5236C49.4079 51.41 50.0832 50.875 50.4794 50.1761L58.1168 36.7091C58.7929 35.517 58.9671 34.1048 58.6009 32.7841L58.0088 30.6482C57.8142 29.9463 58.3882 29.2691 59.1124 29.346L59.5337 29.3906C60.6673 29.5108 61.7998 29.153 62.6586 28.4032L63.6866 27.5046Z" fill="#77CC7D"/>
<path d="M31.7015 2.82921L29.9612 0.0639648C18.2567 0.798215 8.26721 7.81734 3.31934 17.7922L5.33584 31.7227C5.56209 33.2863 6.49209 34.6602 7.85971 35.4513C8.64646 35.9063 8.99071 36.8622 8.67484 37.7143L7.98634 39.5717C7.36684 41.243 7.88971 43.123 9.28296 44.2345L11.1216 45.7013C11.7505 46.2031 12.2535 46.845 12.5902 47.5757L17.3678 57.9432L20.1603 59.9138L22.1322 58.5693L21.4171 55.5808C21.0137 53.895 21.2298 52.1203 22.026 50.5806L25.127 44.5835C25.9811 42.9316 25.1971 40.9048 23.4536 40.2578L20.906 39.3123C20.0967 39.0121 19.5598 38.24 19.5598 37.377V37.1781C19.5598 36.0378 18.6355 35.1136 17.4953 35.1136H13.0665C11.9811 35.1136 10.915 34.8285 9.97446 34.2866L8.89409 33.6642C8.07346 33.1913 7.51521 32.3681 7.37971 31.4307L7.31071 30.9532C7.13696 29.752 7.68121 28.56 8.70259 27.9041L9.33746 27.4965C10.1066 27.0027 11.1088 27.0733 11.8011 27.6701L12.367 28.158C13.056 28.752 14.1296 28.4 14.3331 27.5132L14.9366 24.8836C15.2582 23.4826 16.2852 22.3496 17.6482 21.8925L22.1022 20.3987C23.3742 19.9721 23.9078 18.4647 23.1876 17.333L21.1628 14.1513C20.6065 13.2771 19.4882 12.9507 18.5488 13.3885L16.8767 14.1678C16.0118 14.5711 14.9342 14.3982 14.3505 13.6433C13.5973 12.6696 13.9 11.2706 14.9625 10.6873L19.1648 8.38009C20.5588 7.61471 22.306 8.02959 23.207 9.33996L23.5975 9.90784C24.1748 10.7482 25.1292 11.2501 26.1488 11.2501H28.0398C29.2935 11.2501 30.4233 10.4943 30.902 9.33584L32.0273 6.61196C32.5392 5.37284 32.4177 3.96246 31.7015 2.82921Z" fill="#98DB7C"/>
<path d="M18.8592 61.1865C20.2352 61.8074 21.6613 62.3319 23.1327 62.7555L22.1314 58.5695C20.5049 58.479 18.9196 58.2685 17.3672 57.9434L18.8592 61.1865Z" fill="#77CC7D"/>
</g>
<defs>
<clipPath id="clip0_77_3868">
<rect width="64" height="64" fill="white"/>
</clipPath>
</defs>
</svg>
