<svg width="80" height="80" viewBox="0 0 80 80" fill="none" xmlns="http://www.w3.org/2000/svg">
<mask id="mask0_450_992" style="mask-type:luminance" maskUnits="userSpaceOnUse" x="0" y="0" width="80" height="80">
<path d="M0 7.62939e-06H80V80H0V7.62939e-06Z" fill="white"/>
</mask>
<g mask="url(#mask0_450_992)">
<path d="M30.625 33.6708C31.4437 33.6708 32.1084 33.0062 32.1084 32.1874C32.1084 31.6609 31.834 31.2001 31.4199 30.9374V30.9364C31.1903 30.7883 30.9172 30.704 30.625 30.704C29.8062 30.704 29.1416 31.3686 29.1416 32.1874C29.1416 32.5277 29.2564 32.8416 29.4492 33.0917L29.5361 33.1942C29.8077 33.488 30.1946 33.6708 30.625 33.6708Z" fill="white" stroke="white" stroke-width="0.158203"/>
<path d="M40 1.56262V11.8751" stroke="black" stroke-width="3.16406" stroke-linecap="round" stroke-linejoin="round"/>
<path d="M40 68.1248V78.4373" stroke="black" stroke-width="3.16406" stroke-linecap="round" stroke-linejoin="round"/>
<path d="M10.3579 13.4829L16.9876 20.1125" stroke="black" stroke-width="3.16406" stroke-linecap="round" stroke-linejoin="round"/>
<path d="M63.0132 61.4501L69.6429 68.0798" stroke="black" stroke-width="3.16406" stroke-linecap="round" stroke-linejoin="round"/>
<path d="M69.6429 13.4829L63.0132 20.1125" stroke="black" stroke-width="3.16406" stroke-linecap="round" stroke-linejoin="round"/>
<path d="M16.9876 61.4501L10.3579 68.0798" stroke="black" stroke-width="3.16406" stroke-linecap="round" stroke-linejoin="round"/>
<path d="M74.375 40C74.375 40 60.7109 60.3125 40 60.3125C19.2891 60.3125 5.625 40 5.625 40C5.625 40 19.2891 19.6875 40 19.6875C60.7109 19.6875 74.375 40 74.375 40Z" stroke="black" stroke-width="3.16406" stroke-linecap="round" stroke-linejoin="round"/>
<path d="M35.5328 28.3218C35.5889 28.2999 35.6453 28.2796 35.7016 28.2593C35.7639 28.2358 35.8266 28.2139 35.8891 28.1921C35.9453 28.1718 36.0016 28.153 36.0594 28.1343C36.1328 28.1093 36.2094 28.0843 36.2844 28.0608C36.3812 28.0311 36.4781 28.0014 36.5766 27.9749C36.6719 27.9468 36.7687 27.9202 36.8672 27.8952C36.9703 27.8686 37.0733 27.8436 37.1766 27.8202C37.2734 27.7983 37.3687 27.7764 37.4656 27.7577C37.5437 27.7405 37.6219 27.7249 37.7016 27.7108C37.7703 27.6983 37.8391 27.6858 37.9078 27.6749C37.9452 27.6671 37.9842 27.6608 38.0233 27.6561C38.0937 27.6436 38.1641 27.6343 38.2344 27.6249C38.2531 27.6218 38.2703 27.6186 38.2891 27.6171C38.3484 27.6077 38.4094 27.5999 38.4703 27.5921C38.5359 27.5843 38.6016 27.5764 38.6672 27.5702L38.7609 27.5608C38.8281 27.553 38.8969 27.5468 38.9641 27.5421C38.9998 27.5389 39.0359 27.5358 39.0717 27.5343C39.117 27.5296 39.1641 27.5264 39.2094 27.5249C39.2766 27.5202 39.3452 27.5171 39.4125 27.5139C39.5 27.5093 39.5875 27.5061 39.6766 27.5046C39.7828 27.5014 39.892 27.4999 40 27.4999C46.9031 27.4999 52.5 33.0968 52.5 39.9999C52.5 42.1577 51.9531 44.1874 50.9906 45.9577C50.8953 46.1327 50.7967 46.3061 50.6937 46.4749C50.6405 46.5639 50.5859 46.6499 50.5295 46.7374C50.4297 46.8936 50.3266 47.0468 50.2203 47.1983C50.2094 47.2139 50.1983 47.228 50.1875 47.2436C49.9594 47.5655 49.7156 47.8764 49.4561 48.1733C49.2608 48.3999 49.0562 48.6202 48.8436 48.8327C48.6516 49.0249 48.453 49.2124 48.2484 49.3905C47.3906 50.1452 46.4297 50.7843 45.3875 51.2811C45.2156 51.3639 45.042 51.4421 44.8655 51.5171C44.4922 51.6749 44.1078 51.8155 43.7172 51.9374C43.325 52.0593 42.9266 52.1624 42.5187 52.2452C41.7047 52.4124 40.8623 52.4999 40 52.4999C33.0969 52.4999 27.5 46.903 27.5 39.9999C27.5 39.8921 27.5016 39.7843 27.5047 39.678C27.5062 39.5905 27.5092 39.5046 27.5141 39.4171C27.5172 39.3358 27.5217 39.2546 27.5266 39.1749C27.5281 39.1514 27.5297 39.128 27.5313 39.1046C27.5375 39.0296 27.542 38.9546 27.55 38.8796C27.5516 38.8608 27.5531 38.8436 27.5545 38.8249C27.5625 38.7358 27.5719 38.6468 27.5828 38.5593V38.5561C27.5936 38.4624 27.6047 38.3686 27.6187 38.2749C27.6281 38.2046 27.6375 38.1343 27.65 38.0639C27.6625 37.9702 27.678 37.8796 27.6953 37.7874C27.6983 37.7624 27.7031 37.7389 27.7078 37.7139" stroke="white" stroke-width="3.16406" stroke-linecap="round" stroke-linejoin="round"/>
<path d="M40 44.6875C37.4156 44.6875 35.3125 42.5844 35.3125 40C35.3125 37.4156 37.4156 35.3125 40 35.3125C42.5844 35.3125 44.6875 37.4156 44.6875 40C44.6875 42.5844 42.5844 44.6875 40 44.6875Z" stroke="black" stroke-width="3.16406" stroke-linecap="round" stroke-linejoin="round"/>
</g>
</svg>
