<svg width="20" height="20" viewBox="0 0 20 20" fill="none" xmlns="http://www.w3.org/2000/svg">
<path d="M10.3418 0.415039C14.1164 0.415039 16.0038 0.415041 17.3633 1.31445C17.9702 1.71602 18.49 2.23593 18.8916 2.84277C19.7911 4.20225 19.792 6.09034 19.792 9.86523C19.792 13.64 19.7911 15.5273 18.8916 16.8867C18.49 17.4937 17.9703 18.0134 17.3633 18.415C16.0038 19.3146 14.1166 19.3154 10.3418 19.3154C6.5669 19.3154 4.67881 19.3146 3.31934 18.415C2.71249 18.0134 2.19258 17.4936 1.79102 16.8867C0.891603 15.5273 0.891602 13.6399 0.891602 9.86523C0.891602 6.09034 0.89149 4.20225 1.79102 2.84277C2.19262 2.2359 2.71246 1.71605 3.31934 1.31445C4.67881 0.414927 6.5669 0.415039 10.3418 0.415039ZM10.3418 4.97266C7.63981 4.97266 5.44922 7.16325 5.44922 9.86523C5.44927 12.5672 7.63984 14.7578 10.3418 14.7578C13.0436 14.7576 15.2333 12.567 15.2334 9.86523C15.2334 7.16338 13.0436 4.97288 10.3418 4.97266ZM10.3418 6.62793C12.1294 6.62815 13.5781 8.07754 13.5781 9.86523C13.5781 11.6529 12.1294 13.1023 10.3418 13.1025C8.554 13.1025 7.10455 11.653 7.10449 9.86523C7.10449 8.0774 8.55397 6.62793 10.3418 6.62793ZM15.4268 3.57715C14.792 3.57724 14.2775 4.09182 14.2773 4.72656C14.2773 5.36139 14.792 5.87588 15.4268 5.87598C16.0616 5.87598 16.5762 5.36145 16.5762 4.72656C16.5761 4.09177 16.0616 3.57715 15.4268 3.57715Z" fill="#0EACC3"/>
</svg>
