<svg width="91" height="46" viewBox="0 0 91 46" fill="none" xmlns="http://www.w3.org/2000/svg">
<path d="M51.5571 8.67003C52.7042 8.18743 53.9303 7.76615 55.2352 7.4062C58.3357 6.55091 61.7747 6.12331 65.5523 6.12331C69.3298 6.12331 72.7688 6.55091 75.8692 7.4062C78.9695 8.26148 81.6247 9.463 83.8346 11.0107C86.0438 12.5583 87.7545 14.4319 88.966 16.6312C90.1775 18.7898 90.7833 21.1928 90.7833 23.8401C90.7833 26.4874 90.1775 28.9108 88.966 31.1101C87.7545 33.2687 86.0438 35.1219 83.8346 36.6695C81.6247 38.2172 78.9695 39.4186 75.8692 40.274C72.7688 41.1293 69.3298 41.5569 65.5523 41.5569C64.7365 41.5569 63.9365 41.5367 63.1524 41.4969L60.9398 45.6808L53.1505 34.9896C53.163 34.9852 58.3093 33.2319 63.2307 31.7821C65.9393 30.9841 69.3266 29.8012 69.3399 29.7966L67.8383 32.636C69.4108 32.5474 70.8762 32.3647 72.2342 32.0875C74.2658 31.6396 75.994 31.0286 77.4194 30.2547C78.8805 29.4809 80.003 28.5646 80.7876 27.5056C81.5714 26.406 81.9633 25.1841 81.9633 23.8401C81.9633 22.4961 81.5714 21.2946 80.7876 20.2356C80.003 19.1359 78.8805 18.1993 77.4194 17.4254C75.994 16.6516 74.2658 16.061 72.2342 15.6537C70.2386 15.2057 68.0112 14.9817 65.5523 14.9817C63.0933 14.9817 60.8481 15.2057 58.8168 15.6537C56.8212 16.061 55.0927 16.6516 53.6316 17.4254C52.2061 18.1993 51.1013 19.136 50.3173 20.2356C49.5333 21.2946 49.1413 22.4961 49.1413 23.8401C49.1413 25.1841 49.5333 26.406 50.3173 27.5056C50.578 27.8577 50.8743 28.1939 51.2058 28.5145L45.4801 35.2513C44.114 34.0254 43.0001 32.645 42.1386 31.1101C41.9784 30.8195 41.829 30.5248 41.69 30.2264C41.2976 31.0359 40.8618 31.8804 40.3821 32.7596C39.6898 34.0629 38.7327 35.2847 37.5108 36.4251C36.3297 37.5655 34.8227 38.5022 32.9899 39.2354C31.1979 39.9685 28.9579 40.3351 26.2698 40.3351C23.5817 40.3351 21.3417 39.9685 19.5496 39.2354C17.7984 38.5022 16.3321 37.5655 15.151 36.4251C14.0106 35.2847 13.0942 34.0629 12.4018 32.7596C11.7094 31.4156 11.0985 30.153 10.5691 28.9719L0 5.81785H10.3858L19.122 25.3063C19.3663 25.8765 19.6719 26.5281 20.0384 27.2613C20.4457 27.9536 20.9345 28.6257 21.5046 29.2773C22.0748 29.8882 22.7468 30.4177 23.5206 30.8657C24.3351 31.273 25.2516 31.4766 26.2698 31.4766C27.3287 31.4766 28.2451 31.273 29.0189 30.8657C29.8335 30.4177 30.5259 29.8883 31.0961 29.2773C31.707 28.6664 32.2161 28.0147 32.6234 27.3223C33.0307 26.63 33.3565 26.0191 33.6008 25.4896L45.1349 0H55.5207L51.5571 8.67003Z" fill="url(#paint0_linear_47_4245)"/>
<defs>
<linearGradient id="paint0_linear_47_4245" x1="53.1505" y1="37.6297" x2="13.8278" y2="12.4755" gradientUnits="userSpaceOnUse">
<stop offset="0.00480769" stop-color="#0EACC3"/>
<stop offset="0.17" stop-color="#15D8EE"/>
<stop offset="0.586538" stop-color="#1D8E9E"/>
<stop offset="1" stop-color="#0B658B"/>
</linearGradient>
</defs>
</svg>
