<svg width="23" height="23" viewBox="0 0 23 23" fill="none" xmlns="http://www.w3.org/2000/svg">
<path fill-rule="evenodd" clip-rule="evenodd" d="M2.8226 4.41832L9.0362 10.6346C10.3914 11.9872 12.6067 11.9884 13.963 10.6346L20.1766 4.41832C20.2392 4.35574 20.2301 4.25269 20.1575 4.20206C19.5237 3.76008 18.7526 3.49805 17.922 3.49805H5.07723C4.24658 3.49805 3.4755 3.76012 2.84174 4.20206C2.76914 4.25269 2.76003 4.35574 2.8226 4.41832ZM1.16211 7.41312C1.16211 6.75996 1.32405 6.14282 1.60931 5.60039C1.65391 5.51553 1.76698 5.49837 1.83477 5.56616L7.96971 11.7011C9.91244 13.6467 13.0856 13.6478 15.0295 11.7011L21.1645 5.56616C21.2323 5.49837 21.3453 5.51553 21.3899 5.60039C21.6751 6.14282 21.8371 6.76 21.8371 7.41312V15.5861C21.8371 17.7465 20.0797 19.5012 17.922 19.5012H5.07723C2.91954 19.5012 1.16211 17.7465 1.16211 15.5861V7.41312Z" fill="#0EACC3"/>
</svg>
