<svg width="23" height="16" viewBox="0 0 23 16" fill="none" xmlns="http://www.w3.org/2000/svg">
<path d="M11.8527 15.0931L7.58736 15.0134C6.20635 14.9856 4.8219 15.0411 3.46797 14.7533C1.40833 14.3233 1.26241 12.215 1.10973 10.4466C0.899351 7.96034 0.980796 5.42898 1.37781 2.9635C1.60194 1.58011 2.48397 0.754629 3.84801 0.664801C8.45262 0.338803 13.0879 0.377437 17.6823 0.529527C18.1675 0.543469 18.6561 0.619674 19.1345 0.706415C21.4963 1.12948 21.5539 3.51865 21.707 5.52988C21.8597 7.56186 21.7952 9.60427 21.5034 11.6224C21.2693 13.2934 20.8213 14.6947 18.9309 14.8299C16.5624 15.0068 14.2482 15.1492 11.873 15.1039C11.8731 15.0931 11.8594 15.0931 11.8527 15.0931ZM9.34507 10.8627C11.13 9.81543 12.8808 8.78561 14.6555 7.74535C12.8673 6.69806 11.1198 5.66824 9.34507 4.62798V10.8627Z" fill="#0EACC3"/>
</svg>
