<svg width="20" height="19" viewBox="0 0 20 19" fill="none" xmlns="http://www.w3.org/2000/svg">
<path d="M0.892578 2.95614C0.892578 2.35007 1.10542 1.85007 1.53109 1.45614C1.95676 1.0622 2.51015 0.865234 3.19123 0.865234C3.86015 0.865234 4.40136 1.05916 4.81488 1.44705C5.24055 1.84705 5.45339 2.36825 5.45339 3.01069C5.45339 3.59251 5.24664 4.07734 4.83312 4.46523C4.40745 4.86523 3.84798 5.06523 3.15474 5.06523H3.1365C2.46757 5.06523 1.92637 4.86523 1.51285 4.46523C1.09933 4.06523 0.892578 3.5622 0.892578 2.95614ZM1.12974 18.8652V6.71978H5.17974V18.8652H1.12974ZM7.42366 18.8652H11.4737V12.0834C11.4737 11.6592 11.5223 11.3319 11.6196 11.1016C11.7899 10.6895 12.0483 10.341 12.3949 10.0561C12.7416 9.77129 13.1764 9.62887 13.6993 9.62887C15.0615 9.62887 15.7426 10.544 15.7426 12.3743V18.8652H19.7926V11.9016C19.7926 10.1076 19.3669 8.74705 18.5156 7.81978C17.6642 6.89251 16.5392 6.42887 15.1406 6.42887C13.5716 6.42887 12.3493 7.1016 11.4737 8.44705V8.48341H11.4554L11.4737 8.44705V6.71978H7.42366C7.44798 7.10765 7.46015 8.3137 7.46015 10.338C7.46015 12.3622 7.44798 15.2046 7.42366 18.8652Z" fill="#0EACC3"/>
</svg>
