<svg width="23" height="23" viewBox="0 0 23 23" fill="none" xmlns="http://www.w3.org/2000/svg">
<g clip-path="url(#clip0_77_1152)">
<path d="M17.4859 15.2148C16.7345 14.4729 15.7964 14.4729 15.0498 15.2148C14.4802 15.7795 13.9107 16.3443 13.3507 16.9186C13.1975 17.0766 13.0683 17.1101 12.8817 17.0048C12.5131 16.8038 12.1207 16.641 11.7665 16.4209C10.1153 15.3823 8.73213 14.047 7.50689 12.5442C6.89906 11.7975 6.35823 10.9982 5.98013 10.0985C5.90355 9.91659 5.91791 9.79694 6.06628 9.64857C6.63582 9.09817 7.19101 8.53342 7.75098 7.96866C8.53111 7.18374 8.53111 6.26481 7.74619 5.47511C7.30109 5.02522 6.85598 4.5849 6.41087 4.13501C5.95141 3.67554 5.49673 3.21129 5.03248 2.75661C4.28107 2.02434 3.343 2.02434 2.59637 2.7614C2.02204 3.32616 1.47164 3.90527 0.887735 4.46046C0.346908 4.97257 0.0741011 5.59955 0.0166681 6.33182C-0.0742674 7.52355 0.217684 8.64828 0.629287 9.7443C1.47164 12.0129 2.75431 14.0278 4.30978 15.8753C6.41088 18.3736 8.91878 20.3503 11.8527 21.7765C13.1736 22.4178 14.5424 22.9108 16.0309 22.9922C17.0551 23.0496 17.9453 22.7912 18.6585 21.9919C19.1466 21.4463 19.697 20.9485 20.2139 20.4268C20.9797 19.6515 20.9845 18.7134 20.2235 17.9476C19.3142 17.0335 18.4 16.1241 17.4859 15.2148Z" fill="#0EACC3"/>
<path d="M16.5719 11.4005L18.338 11.099C18.0604 9.47653 17.2946 8.0072 16.1316 6.8394C14.9016 5.60938 13.3461 4.83403 11.6327 4.59473L11.3838 6.37036C12.7095 6.55702 13.9156 7.15528 14.8681 8.10771C15.7678 9.00749 16.3565 10.1466 16.5719 11.4005Z" fill="#0EACC3"/>
<path d="M19.3333 3.72357C17.2945 1.6847 14.7148 0.397245 11.867 0L11.6182 1.77564C14.0782 2.12023 16.3085 3.23539 18.0698 4.99188C19.7401 6.66223 20.8362 8.77289 21.2334 11.0941L22.9995 10.7926C22.5352 8.10284 21.2669 5.66194 19.3333 3.72357Z" fill="#0EACC3"/>
</g>
<defs>
<clipPath id="clip0_77_1152">
<rect width="23" height="23" fill="white"/>
</clipPath>
</defs>
</svg>
