<svg width="20" height="16" viewBox="0 0 20 16" fill="none" xmlns="http://www.w3.org/2000/svg">
<path d="M13.521 0.10106V0.0976562H14.4072L14.731 0.162328C14.9469 0.204313 15.1429 0.259335 15.319 0.32741C15.4951 0.395486 15.6655 0.474913 15.8302 0.565674C15.995 0.656435 16.1444 0.748916 16.2785 0.843081C16.4114 0.936123 16.5307 1.03483 16.6363 1.13921C16.7408 1.24473 16.9039 1.27196 17.1254 1.2209C17.347 1.16984 17.5856 1.09892 17.8412 1.00816C18.0969 0.917402 18.3497 0.815289 18.5996 0.701825C18.8496 0.58836 19.0018 0.516319 19.0564 0.485686C19.1098 0.453928 19.1382 0.43691 19.1416 0.434629L19.145 0.429523L19.162 0.421014L19.1791 0.412505L19.1961 0.403995L19.2131 0.395486L19.2165 0.39038L19.2217 0.386976L19.2268 0.383573L19.2302 0.378467L19.2472 0.373361L19.2643 0.369958L19.2609 0.395486L19.2557 0.421014L19.2472 0.446542L19.2387 0.47207L19.2302 0.489089L19.2217 0.506108L19.2131 0.531636C19.2075 0.548655 19.2018 0.571341 19.1961 0.599712C19.1904 0.628082 19.1364 0.74153 19.0342 0.940088C18.9319 1.13865 18.8041 1.34003 18.6507 1.54426C18.4974 1.74848 18.3599 1.90278 18.2383 2.00717C18.1156 2.11269 18.0344 2.18643 17.9946 2.22841C17.9548 2.27152 17.9066 2.31123 17.8497 2.34755L17.7645 2.40371L17.7475 2.41222L17.7304 2.42073L17.7271 2.42583L17.7219 2.42924L17.7168 2.43264L17.7134 2.43775L17.6964 2.44625L17.6793 2.45476L17.6759 2.45987L17.6708 2.46327L17.6657 2.46668L17.6623 2.47178L17.6589 2.47689L17.6538 2.48029L17.6486 2.4837L17.6452 2.4888H17.7304L18.2076 2.38669C18.5258 2.31861 18.8297 2.23636 19.1194 2.13992L19.5795 1.98675L19.6307 1.96973L19.6562 1.96122L19.6733 1.95271L19.6903 1.9442L19.7074 1.93569L19.7244 1.92718L19.7585 1.92207L19.7926 1.91867V1.95271L19.7841 1.95611L19.7755 1.96122L19.7721 1.96632L19.767 1.96973L19.7619 1.97313L19.7585 1.97824L19.7551 1.98334L19.75 1.98675L19.7449 1.99015L19.7414 1.99526L19.7381 2.00036L19.7329 2.00377L19.7244 2.02078L19.7159 2.0378L19.7108 2.04121C19.7085 2.04461 19.6364 2.14104 19.4943 2.33053C19.3523 2.52114 19.2756 2.61757 19.2643 2.61985C19.2529 2.62325 19.237 2.64027 19.2165 2.6709C19.1972 2.70266 19.0768 2.82918 18.8552 3.05042C18.6337 3.27167 18.4167 3.46851 18.2042 3.64098C17.9907 3.81457 17.8827 4.02787 17.8804 4.28088C17.877 4.53276 17.864 4.81756 17.8412 5.13523C17.8185 5.45292 17.7759 5.79612 17.7134 6.16487C17.6509 6.53362 17.5543 6.95058 17.4237 7.41575C17.293 7.88093 17.134 8.33477 16.9465 8.77726C16.759 9.21975 16.563 9.61685 16.3585 9.96858C16.154 10.3203 15.9666 10.6181 15.7961 10.8621C15.6257 11.106 15.4525 11.3358 15.2763 11.5513C15.1002 11.7669 14.8776 12.0097 14.6083 12.2797C14.3379 12.5486 14.1902 12.6961 14.1652 12.7222C14.1391 12.7472 14.0277 12.8402 13.8312 13.0013C13.6357 13.1636 13.4255 13.3258 13.2006 13.4881C12.9768 13.6492 12.7711 13.7836 12.5837 13.8914C12.3962 13.9992 12.1701 14.1223 11.9054 14.2607C11.6418 14.4003 11.3566 14.5296 11.0498 14.6488C10.7431 14.7679 10.4193 14.8785 10.0784 14.9806C9.73757 15.0827 9.40809 15.1622 9.08996 15.2189C8.77185 15.2756 8.41111 15.3238 8.00777 15.3635L7.40277 15.4231V15.4316H6.29501V15.4231L6.15015 15.4146C6.05359 15.4089 5.97405 15.4033 5.91156 15.3976C5.84908 15.3919 5.61332 15.3607 5.2043 15.304C4.79528 15.2473 4.47432 15.1905 4.24141 15.1338C4.0085 15.0771 3.66196 14.9693 3.20182 14.8104C2.74168 14.6516 2.348 14.491 2.02078 14.3288C1.69471 14.1677 1.4902 14.0656 1.40726 14.0225C1.32545 13.9805 1.23343 13.9283 1.13117 13.8659L0.97779 13.7723L0.974399 13.7672L0.969269 13.7638L0.964156 13.7604L0.960748 13.7553L0.943705 13.7468L0.926663 13.7382L0.923271 13.7331L0.918142 13.7297L0.913029 13.7263L0.909621 13.7212L0.906229 13.7161L0.901099 13.7127H0.892578V13.6787L0.909621 13.6821L0.926663 13.6872L1.00335 13.6957C1.05448 13.7014 1.19367 13.7099 1.42089 13.7212C1.64814 13.7326 1.88956 13.7326 2.14519 13.7212C2.40083 13.7099 2.66216 13.6843 2.92914 13.6446C3.19615 13.6049 3.51143 13.5369 3.87499 13.4404C4.23858 13.344 4.57261 13.2294 4.8771 13.0966C5.18046 12.9628 5.39632 12.8629 5.52471 12.7971C5.65195 12.7324 5.84624 12.6122 6.10755 12.4363L6.49952 12.1725L6.50293 12.1674L6.50804 12.164L6.51317 12.1606L6.51656 12.1555L6.51997 12.1504L6.52508 12.147L6.53021 12.1436L6.53361 12.1385L6.55065 12.1334L6.56769 12.13L6.5711 12.1129L6.57621 12.0959L6.58134 12.0925L6.58473 12.0874L6.44839 12.0789C6.35751 12.0732 6.26945 12.0676 6.18424 12.0619C6.09903 12.0562 5.96553 12.0307 5.78374 11.9853C5.60197 11.9399 5.40598 11.8718 5.19578 11.7811C4.9856 11.6903 4.78109 11.5825 4.58225 11.4577C4.38344 11.3329 4.2397 11.2291 4.15108 11.1463C4.0636 11.0646 3.94998 10.9489 3.81023 10.7991C3.67163 10.6482 3.55119 10.4933 3.44894 10.3345C3.34668 10.1756 3.24898 9.99239 3.15582 9.78477L3.01435 9.47503L3.00583 9.4495L2.99731 9.42397L2.9922 9.40696L2.98879 9.38994L3.01435 9.39334L3.03992 9.39845L3.22738 9.42397C3.35237 9.44099 3.54836 9.44666 3.81535 9.44099C4.08235 9.43533 4.26697 9.42397 4.36922 9.40696C4.47148 9.38994 4.53397 9.37858 4.55669 9.37292L4.59077 9.36441L4.63338 9.3559L4.67599 9.34739L4.67939 9.34228L4.68451 9.33888L4.68964 9.33548L4.69303 9.33037L4.65894 9.32186L4.62486 9.31335L4.59077 9.30484L4.55669 9.29633L4.5226 9.28782C4.49989 9.28216 4.46013 9.2708 4.40331 9.25379C4.34651 9.23677 4.19312 9.17436 3.94316 9.06658C3.69322 8.9588 3.49439 8.85384 3.34668 8.75173C3.19861 8.64932 3.05742 8.53732 2.92403 8.41646C2.7911 8.29392 2.64511 8.13621 2.48604 7.94334C2.32698 7.75046 2.18497 7.52637 2.05998 7.27109C1.93501 7.01581 1.84128 6.77188 1.77878 6.53928C1.71654 6.30805 1.67547 6.07165 1.65609 5.833L1.6254 5.47561L1.64244 5.47901L1.65949 5.48412L1.67653 5.49262L1.69357 5.50113L1.71061 5.50964L1.72765 5.51815L1.99181 5.63728C2.16793 5.71671 2.38663 5.78479 2.64794 5.84151C2.90927 5.89823 3.06548 5.92945 3.11661 5.93511L3.1933 5.94362H3.34668L3.34329 5.93852L3.33816 5.93511L3.33305 5.93171L3.32964 5.92661L3.32625 5.9215L3.32112 5.9181L3.316 5.91469L3.3126 5.90959L3.29555 5.90108L3.27851 5.89257L3.27512 5.88746L3.26999 5.88406L3.26488 5.88065L3.26147 5.87555L3.24443 5.86704L3.22738 5.85853L3.22399 5.85342C3.22058 5.85114 3.17172 5.81484 3.07741 5.7445C2.98424 5.67302 2.88654 5.58056 2.78428 5.4671C2.68203 5.35363 2.57977 5.2345 2.47752 5.1097C2.37508 4.98462 2.28383 4.85079 2.20484 4.70976C2.12532 4.56794 2.04123 4.38752 1.95261 4.16856C1.86514 3.95072 1.79867 3.73118 1.75322 3.50993C1.70778 3.28869 1.68222 3.07028 1.67653 2.85471C1.67085 2.63913 1.67653 2.45476 1.69357 2.30159C1.71061 2.14843 1.7447 1.97539 1.79582 1.78252C1.84695 1.58965 1.92081 1.38542 2.01738 1.16984L2.16224 0.846485L2.17076 0.820956L2.17928 0.795428L2.18441 0.792024L2.1878 0.786919L2.19121 0.781813L2.19632 0.778409L2.20145 0.781813L2.20484 0.786919L2.20825 0.792024L2.21336 0.795428L2.21849 0.798832L2.22188 0.803938L2.22529 0.809043L2.2304 0.812447L2.23893 0.829466L2.24745 0.846485L2.25258 0.849889L2.25597 0.854994L2.48604 1.11028C2.63942 1.28046 2.82121 1.47051 3.0314 1.68041C3.2416 1.8903 3.35805 1.99922 3.38077 2.00717C3.4035 2.01624 3.43189 2.04233 3.46598 2.08546C3.50006 2.12744 3.61368 2.22785 3.80683 2.38669C3.99998 2.54553 4.25277 2.72991 4.56521 2.9398C4.87767 3.14969 5.22419 3.35676 5.6048 3.56099C5.98542 3.76521 6.39444 3.94958 6.83185 4.1141C7.26927 4.27862 7.57604 4.3864 7.75214 4.43746C7.92825 4.48851 8.22932 4.55375 8.65538 4.63317C9.08144 4.7126 9.40242 4.76366 9.61828 4.78634C9.83415 4.80903 9.98186 4.82208 10.0614 4.82549L10.1807 4.82889L10.1773 4.80336L10.1722 4.77783L10.1381 4.5651C10.1154 4.42328 10.104 4.22472 10.104 3.96944C10.104 3.71416 10.1239 3.47874 10.1636 3.26316C10.2034 3.04758 10.2631 2.82918 10.3426 2.60793C10.4221 2.38669 10.4999 2.20911 10.5761 2.07524C10.6533 1.9425 10.7544 1.79103 10.8794 1.62084C11.0044 1.45065 11.1663 1.2748 11.3651 1.09326C11.564 0.911718 11.7912 0.750039 12.0468 0.608221C12.3025 0.466403 12.5382 0.358606 12.7541 0.284863C12.97 0.211121 13.1517 0.162889 13.2994 0.140203C13.4471 0.117517 13.521 0.104464 13.521 0.10106Z" fill="#0EACC3"/>
</svg>
