<svg width="282" height="59" viewBox="0 0 282 59" fill="none" xmlns="http://www.w3.org/2000/svg">
<path d="M60.6264 14.7441C61.7736 14.2615 62.9996 13.8402 64.3046 13.4803C67.405 12.625 70.8441 12.1974 74.6216 12.1974C78.3991 12.1974 81.8382 12.625 84.9386 13.4803C88.0389 14.3356 90.694 15.5371 92.904 17.0847C95.1131 18.6324 96.8239 20.506 98.0354 22.7053C99.2469 24.8639 99.8526 27.2669 99.8526 29.9142C99.8526 32.5615 99.2469 34.9849 98.0354 37.1842C96.8239 39.3428 95.1131 41.196 92.904 42.7436C90.694 44.2913 88.0389 45.4927 84.9386 46.3481C81.8382 47.2034 78.3991 47.631 74.6216 47.631C73.8058 47.631 73.0059 47.6108 72.2217 47.571L70.0092 51.7549L62.2198 41.0637C62.2324 41.0593 67.3787 39.306 72.3 37.8562C75.0086 37.0582 78.396 35.8753 78.4093 35.8707L76.9076 38.7101C78.4802 38.6214 79.9455 38.4388 81.3036 38.1616C83.3352 37.7137 85.0634 37.1027 86.4887 36.3288C87.9498 35.555 89.0723 34.6386 89.8569 33.5797C90.6407 32.4801 91.0327 31.2582 91.0327 29.9142C91.0327 28.5702 90.6407 27.3687 89.8569 26.3097C89.0723 25.21 87.9498 24.2734 86.4887 23.4995C85.0634 22.7257 83.3352 22.1351 81.3036 21.7278C79.3079 21.2798 77.0805 21.0558 74.6216 21.0558C72.1627 21.0558 69.9175 21.2798 67.8861 21.7278C65.8905 22.1351 64.162 22.7257 62.7009 23.4995C61.2754 24.2734 60.1707 25.2101 59.3867 26.3097C58.6026 27.3687 58.2106 28.5702 58.2106 29.9142C58.2106 31.2582 58.6026 32.4801 59.3867 33.5797C59.6474 33.9318 59.9436 34.268 60.2752 34.5886L54.5494 41.3254C53.1833 40.0995 52.0694 38.719 51.2079 37.1842C51.0477 36.8936 50.8983 36.5989 50.7593 36.3005C50.3669 37.11 49.9311 37.9545 49.4515 38.8337C48.7591 40.137 47.802 41.3588 46.5802 42.4992C45.399 43.6396 43.8921 44.5763 42.0593 45.3095C40.2672 46.0426 38.0272 46.4091 35.3391 46.4091C32.651 46.4091 30.411 46.0426 28.619 45.3095C26.8677 44.5763 25.4014 43.6396 24.2203 42.4992C23.0799 41.3588 22.1635 40.137 21.4711 38.8337C20.7788 37.4897 20.1679 36.2271 19.6384 35.0459L9.06934 11.8919H19.4551L28.1914 31.3804C28.4357 31.9506 28.7412 32.6022 29.1077 33.3354C29.515 34.0277 30.0038 34.6998 30.5739 35.3514C31.1441 35.9623 31.8161 36.4918 32.5899 36.9398C33.4045 37.3471 34.3209 37.5507 35.3391 37.5507C36.398 37.5507 37.3145 37.3471 38.0883 36.9398C38.9028 36.4918 39.5953 35.9624 40.1655 35.3514C40.7764 34.7405 41.2854 34.0888 41.6927 33.3964C42.1 32.7041 42.4258 32.0932 42.6702 31.5637L54.2043 6.0741H64.59L60.6264 14.7441Z" fill="url(#paint0_linear_47_4111)"/>
<path d="M125.007 24.0198L119.422 33.8625H115.585L110 24.0198H113.412L117.538 31.4862H117.656L121.816 24.0198H125.007ZM129.255 24.0198V33.8625H126.318V24.0198H129.255ZM132.934 33.8625H130.524V31.8518H131.983C133.353 31.8518 134.258 31.7112 134.7 31.43C135.141 31.1487 135.362 30.5957 135.362 29.7708V24.0198H138.333V29.6583C138.333 30.7269 138.18 31.5565 137.874 32.1471C137.569 32.7282 137.025 33.1595 136.245 33.4407C135.475 33.7219 134.372 33.8625 132.934 33.8625ZM148.98 24.0198L154.582 33.8625H151.272L150.05 31.6409H143.378L142.139 33.8625H138.913L144.498 24.0198H148.98ZM146.773 25.7915H146.654L144.464 29.7005H148.946L146.773 25.7915ZM160.599 29.6161V33.8625H157.645V29.6161L152.076 24.0198H155.625L159.241 27.746H159.342L162.958 24.0198H166.184L160.599 29.6161Z" fill="#0B668B"/>
<path d="M179.049 34.1438H177.877C175.806 34.1438 174.295 33.7782 173.345 33.047C172.405 32.3158 171.936 31.1909 171.936 29.6723V28.4912C171.936 26.9726 172.405 25.8477 173.345 25.1165C174.295 24.3854 175.806 24.0198 177.877 24.0198H179.049C181.12 24.0198 182.625 24.3854 183.564 25.1165C184.515 25.8477 184.99 26.9726 184.99 28.4912V29.6723C184.99 31.1909 184.515 32.3158 183.564 33.047C182.625 33.7782 181.12 34.1438 179.049 34.1438ZM178.081 33.1173H178.845C179.784 33.1079 180.56 33.0283 181.171 32.8783C181.782 32.7282 182.257 32.4892 182.597 32.1611C182.948 31.8331 183.191 31.4534 183.327 31.0222C183.463 30.5817 183.53 30.0379 183.53 29.3911V28.7865C183.53 27.4742 183.202 26.5226 182.546 25.9321C181.889 25.3415 180.656 25.0462 178.845 25.0462H178.081C177.142 25.0462 176.361 25.126 175.738 25.2853C175.127 25.4353 174.652 25.6743 174.312 26.0024C173.973 26.3304 173.735 26.7149 173.599 27.1554C173.463 27.5959 173.396 28.1397 173.396 28.7865V29.3911C173.396 30.0379 173.463 30.5817 173.599 31.0222C173.735 31.4534 173.973 31.8331 174.312 32.1611C174.652 32.4892 175.127 32.733 175.738 32.8923C176.361 33.0423 177.142 33.1173 178.081 33.1173ZM199.728 24.1604L193.821 34.0031H191.851L185.943 24.1604H187.59L192.819 32.9486H192.904L198.167 24.1604H199.728ZM212.025 32.9908V34.0031H201.636V24.1604H212.025V25.1728H203.062V28.5615H212.025V29.588H203.062V32.9908H212.025ZM216.076 29.7989V34.0031H214.65V24.1604H222.238C223.687 24.1604 224.717 24.3572 225.328 24.751C225.951 25.1353 226.262 25.7728 226.262 26.6633V26.9164C226.262 27.6288 226.098 28.1631 225.769 28.5193C225.453 28.8662 224.96 29.0864 224.293 29.1802V29.2364C224.96 29.3208 225.458 29.5177 225.786 29.827C226.103 30.1269 226.262 30.666 226.262 31.444V34.0031H224.819V31.7112C224.819 30.9425 224.626 30.4316 224.242 30.1785C223.857 29.9254 223.065 29.7989 221.865 29.7989H216.076ZM221.729 25.1728H216.076V28.7865H222.001C223.087 28.7865 223.829 28.6553 224.225 28.3928C224.621 28.1303 224.819 27.671 224.819 27.0148V26.9023C224.819 26.2461 224.598 25.7961 224.157 25.5524C223.715 25.2993 222.906 25.1728 221.729 25.1728ZM234.626 34.1438H234.371C230.897 34.1438 228.933 33.3047 228.48 31.6268H229.974C230.404 32.6486 231.927 33.1595 234.541 33.1595C236.024 33.1595 237.127 33.0142 237.851 32.7236C238.576 32.433 238.938 31.9362 238.938 31.2331V31.1066C238.938 30.5441 238.728 30.1458 238.31 29.9114C237.902 29.677 237.127 29.5411 235.984 29.5036L232.809 29.4052C231.406 29.3676 230.404 29.1474 229.805 28.7443C229.216 28.3412 228.922 27.7413 228.922 26.9445V26.8601C228.922 25.8477 229.363 25.1212 230.246 24.6806C231.14 24.2401 232.442 24.0198 234.151 24.0198H234.439C237.789 24.0198 239.662 24.8681 240.058 26.5648H238.581C238.378 25.9743 237.908 25.5665 237.172 25.3415C236.448 25.1165 235.48 25.004 234.269 25.004C232.9 25.004 231.904 25.1447 231.282 25.4259C230.67 25.6977 230.365 26.143 230.365 26.7617V26.8039C230.365 27.3663 230.574 27.7647 230.993 27.9991C231.412 28.2334 232.192 28.3693 233.336 28.4068L236.493 28.5053C237.908 28.5615 238.91 28.7865 239.498 29.1802C240.087 29.5739 240.381 30.1691 240.381 30.966V31.0925C240.381 31.6831 240.239 32.1846 239.956 32.597C239.685 33.0002 239.277 33.3142 238.734 33.5391C238.202 33.7547 237.602 33.9094 236.935 34.0031C236.278 34.0969 235.509 34.1438 234.626 34.1438ZM253.141 32.9908V34.0031H242.751V24.1604H253.141V25.1728H244.177V28.5615H253.141V29.588H244.177V32.9908H253.141ZM262.777 24.1604L268.684 34.0031H267.089L265.306 31.0222H258.057L256.258 34.0031H254.679L260.587 24.1604H262.777ZM261.724 25.0181H261.639L258.651 29.9957H264.695L261.724 25.0181ZM275.757 34.1438H275.502C272.028 34.1438 270.065 33.3047 269.612 31.6268H271.106C271.535 32.6486 273.058 33.1595 275.672 33.1595C277.154 33.1595 278.258 33.0142 278.983 32.7236C279.707 32.433 280.069 31.9362 280.069 31.2331V31.1066C280.069 30.5441 279.86 30.1458 279.441 29.9114C279.034 29.677 278.258 29.5411 277.115 29.5036L273.941 29.4052C272.537 29.3676 271.535 29.1474 270.936 28.7443C270.347 28.3412 270.053 27.7413 270.053 26.9445V26.8601C270.053 25.8477 270.494 25.1212 271.377 24.6806C272.272 24.2401 273.572 24.0198 275.282 24.0198H275.57C278.92 24.0198 280.794 24.8681 281.19 26.5648H279.713C279.509 25.9743 279.039 25.5665 278.304 25.3415C277.579 25.1165 276.611 25.004 275.401 25.004C274.031 25.004 273.036 25.1447 272.413 25.4259C271.802 25.6977 271.496 26.143 271.496 26.7617V26.8039C271.496 27.3663 271.705 27.7647 272.124 27.9991C272.543 28.2334 273.324 28.3693 274.467 28.4068L277.625 28.5053C279.039 28.5615 280.04 28.7865 280.629 29.1802C281.218 29.5739 281.512 30.1691 281.512 30.966V31.0925C281.512 31.6831 281.371 32.1846 281.088 32.597C280.816 33.0002 280.409 33.3142 279.865 33.5391C279.334 33.7547 278.733 33.9094 278.066 34.0031C277.409 34.0969 276.64 34.1438 275.757 34.1438Z" fill="#0EACC3"/>
<defs>
<linearGradient id="paint0_linear_47_4111" x1="62.2198" y1="43.7038" x2="22.8971" y2="18.5496" gradientUnits="userSpaceOnUse">
<stop offset="0.00480769" stop-color="#0EACC3"/>
<stop offset="0.17" stop-color="#15D8EE"/>
<stop offset="0.586538" stop-color="#1D8E9E"/>
<stop offset="1" stop-color="#0B658B"/>
</linearGradient>
</defs>
</svg>
