<svg width="16" height="16" viewBox="0 0 16 16" fill="none" xmlns="http://www.w3.org/2000/svg">
<path d="M15.1461 5.96188H14.2352V4.30986C14.2352 4.104 14.1631 3.9316 14.019 3.79264C13.8749 3.65369 13.7051 3.58421 13.5095 3.58421H6.99407L5.66628 1.74691H0.725654C0.519795 1.74691 0.347388 1.81639 0.208433 1.95535C0.0694775 2.0943 0 2.26156 0 2.45713V13.975C0 14.047 0.0128662 14.1191 0.0385986 14.1911C0.0643311 14.2632 0.0977832 14.3301 0.138955 14.3918C0.200713 14.4742 0.27791 14.5385 0.370547 14.5848C0.463184 14.6311 0.566113 14.6543 0.679336 14.6543H12.4751C12.6192 14.6543 12.753 14.608 12.8765 14.5153C13 14.4227 13.0772 14.3095 13.1081 14.1757L15.81 6.78018V6.73386C15.81 6.50741 15.7482 6.32214 15.6247 6.17804C15.5012 6.03394 15.3417 5.96188 15.1461 5.96188ZM0.524941 2.45713C0.524941 2.40566 0.542954 2.36192 0.578979 2.32589C0.615005 2.28987 0.663897 2.27186 0.725654 2.27186H5.40381L6.71616 4.10915H13.5095C13.561 4.10915 13.6047 4.12974 13.6408 4.17091C13.6768 4.21208 13.6948 4.2584 13.6948 4.30986V5.96188H3.35036C3.32978 5.96188 3.31176 5.96188 3.29632 5.96188C3.28088 5.96188 3.26287 5.96188 3.24229 5.96188C3.11877 5.98247 3.00812 6.03651 2.91034 6.124C2.81255 6.21149 2.74308 6.31699 2.7019 6.44051L0.524941 12.3847V2.45713ZM12.614 14.0213C12.6037 14.0522 12.5857 14.0779 12.56 14.0985C12.5343 14.1191 12.506 14.1294 12.4751 14.1294H0.679336C0.648457 14.1294 0.622725 14.1216 0.602139 14.1062C0.581553 14.0908 0.566113 14.0779 0.55582 14.0676C0.545527 14.0573 0.537808 14.0419 0.532661 14.0213C0.527515 14.0007 0.524941 13.9801 0.524941 13.9595L3.21141 6.5949C3.2217 6.56402 3.23971 6.53829 3.26544 6.5177C3.29118 6.49712 3.31948 6.48683 3.35036 6.48683H15.1461C15.1976 6.48683 15.231 6.51256 15.2465 6.56402C15.2619 6.61549 15.2748 6.66181 15.2851 6.70298L12.614 14.0213Z" fill="#2F1908"/>
</svg>
