<svg width="48" height="49" viewBox="0 0 48 49" fill="none" xmlns="http://www.w3.org/2000/svg">
<path d="M22.8823 16.1132C22.8823 14.5565 22.5866 13.0933 21.9951 11.7235C21.3724 10.3536 20.5552 9.155 19.5434 8.12761C18.5315 7.10023 17.3251 6.29078 15.9242 5.69926C14.5543 5.0766 13.0911 4.76527 11.5344 4.76527C9.97779 4.76527 8.51455 5.0766 7.14471 5.69926C5.74373 6.29078 4.52955 7.10023 3.50217 8.12761C2.47479 9.155 1.66533 10.3536 1.07381 11.7235C0.482285 13.0933 0.186523 14.5565 0.186523 16.1132C0.186523 17.701 0.482285 19.1798 1.07381 20.5496C1.66533 21.9195 2.47479 23.1181 3.50217 24.1454C4.52955 25.1728 5.72816 25.9823 7.09801 26.5738C8.49898 27.1653 9.97779 27.4611 11.5344 27.4611C11.908 27.4611 12.2816 27.4455 12.6552 27.4144C13.0288 27.3833 13.418 27.321 13.8227 27.2276C13.4802 28.722 13.0599 30.1385 12.5618 31.4772C12.0948 32.8159 11.5967 34.0612 11.0674 35.2132C10.5382 36.3651 10.0089 37.4236 9.47967 38.3887C8.95041 39.3227 8.49898 40.1321 8.12539 40.8171C7.90746 41.1595 7.72066 41.4786 7.565 41.7744C7.40934 42.0702 7.26924 42.327 7.14471 42.5449C7.05131 42.7317 6.95791 43.0041 6.86451 43.3622C6.77111 43.7202 6.88008 44.0237 7.19141 44.2728C7.2848 44.3662 7.38599 44.4363 7.49495 44.483C7.60392 44.5297 7.72066 44.553 7.8452 44.553C8.06313 44.553 8.3044 44.483 8.56903 44.3429C8.83366 44.2028 9.07494 44.0549 9.29287 43.8992C9.6042 43.7124 9.99336 43.4556 10.4604 43.1287C10.9273 42.8018 11.5344 42.3581 12.2816 41.7978L12.3283 41.7511C13.667 40.568 14.8812 39.2838 15.9709 37.8984C17.0605 36.513 18.0256 35.0575 18.8662 33.532C19.5511 32.2867 20.1504 30.9869 20.6641 29.6326C21.1778 28.2783 21.6059 26.8851 21.9484 25.453C22.5087 23.1492 22.8123 21.1489 22.859 19.4522C22.9057 17.7554 22.9135 16.6424 22.8823 16.1132ZM20.2672 25.0327C19.8936 26.5582 19.4266 28.037 18.8662 29.4692C18.3058 30.8701 17.652 32.2166 16.9048 33.5086C16.1577 34.8007 15.3015 36.0226 14.3364 37.1745C13.4024 38.3264 12.375 39.4005 11.2542 40.3968C11.0674 40.5524 10.8339 40.7315 10.5538 40.9338C10.2736 41.1362 9.97779 41.3463 9.66646 41.5643C10.1023 40.7859 10.616 39.8675 11.2075 38.809C11.7679 37.7505 12.3439 36.5674 12.9354 35.2599C13.5269 33.9523 14.0718 32.5357 14.5699 31.0102C15.0991 29.4847 15.5039 27.8658 15.7841 26.1535L16.0176 24.7058L14.6633 25.2195C14.134 25.3752 13.6125 25.4997 13.0989 25.5931C12.5852 25.6865 12.0637 25.7332 11.5344 25.7332C10.2269 25.7332 8.98154 25.4842 7.7985 24.986C6.64658 24.4879 5.63477 23.803 4.76305 22.9313C3.89133 22.0595 3.20641 21.0322 2.70828 19.8491C2.21016 18.6972 1.96109 17.4519 1.96109 16.1132C1.96109 14.8056 2.21016 13.5603 2.70828 12.3772C3.20641 11.2253 3.89133 10.2135 4.76305 9.34179C5.63477 8.47008 6.64658 7.78515 7.7985 7.28703C8.95041 6.7889 10.1957 6.53984 11.5344 6.53984C12.842 6.53984 14.0873 6.7889 15.2704 7.28703C16.4223 7.78515 17.4341 8.47008 18.3058 9.34179C19.1775 10.2135 19.8625 11.2253 20.3606 12.3772C20.8898 13.5292 21.1545 14.7745 21.1545 16.1132V16.1599C21.1545 16.191 21.1545 16.2066 21.1545 16.2066C21.1545 16.2066 21.1545 16.2221 21.1545 16.2533C21.1856 16.7203 21.1778 17.7554 21.1311 19.3588C21.0844 20.9621 20.7964 22.8534 20.2672 25.0327ZM47.773 16.1599C47.773 14.5721 47.4773 13.0933 46.8857 11.7235C46.2942 10.3536 45.4848 9.155 44.4574 8.12761C43.43 7.10023 42.2314 6.29078 40.8615 5.69926C39.4606 5.10773 37.9818 4.81197 36.4251 4.81197C34.8685 4.81197 33.4052 5.10773 32.0354 5.69926C30.6655 6.29078 29.4669 7.10023 28.4396 8.12761C27.4122 9.155 26.6027 10.3536 26.0112 11.7235C25.4197 13.0933 25.1239 14.5565 25.1239 16.1132C25.1239 17.701 25.4197 19.1798 26.0112 20.5496C26.6027 21.9195 27.4122 23.1181 28.4396 24.1454C29.4669 25.1728 30.6655 25.9823 32.0354 26.5738C33.4052 27.1653 34.8685 27.4611 36.4251 27.4611C36.7987 27.4611 37.1801 27.4455 37.5692 27.4144C37.9584 27.3833 38.3398 27.321 38.7134 27.2276C38.3709 28.722 37.9662 30.1385 37.4992 31.4772C37.0011 32.8159 36.4874 34.0612 35.9581 35.2132C35.4289 36.3651 34.8996 37.408 34.3703 38.342C33.8722 39.3071 33.4208 40.1321 33.0161 40.8171C32.7981 41.1595 32.6113 41.4709 32.4557 41.7511C32.3 42.0312 32.1755 42.2803 32.0821 42.4982C31.9887 42.7162 31.8875 43.0041 31.7785 43.3622C31.6696 43.7202 31.7708 44.0237 32.0821 44.2728C32.1755 44.3662 32.2767 44.4363 32.3856 44.483C32.4946 44.5297 32.6113 44.553 32.7359 44.553C32.9849 44.553 33.234 44.483 33.4831 44.3429C33.7321 44.2028 33.9812 44.0549 34.2303 43.8992C34.5416 43.7124 34.923 43.4556 35.3744 43.1287C35.8258 42.8018 36.4407 42.3581 37.219 41.7978L37.2657 41.7511C38.5733 40.568 39.7719 39.2838 40.8615 37.8984C41.9512 36.513 42.9163 35.0575 43.7569 33.532C44.4418 32.2867 45.0411 30.9869 45.5548 29.6326C46.0685 28.2783 46.4966 26.8851 46.839 25.453C47.3994 23.1492 47.703 21.1489 47.7497 19.4522C47.7964 17.7554 47.8042 16.658 47.773 16.1599ZM45.1579 25.0327C44.8154 26.5894 44.3484 28.0682 43.7569 29.4692C43.1965 30.8701 42.5427 32.2166 41.7955 33.5086C41.0483 34.8007 40.2078 36.0226 39.2738 37.1745C38.3087 38.3264 37.2657 39.4161 36.1449 40.4435C35.9581 40.568 35.7246 40.7315 35.4444 40.9338C35.1642 41.1362 34.8685 41.3463 34.5571 41.5643C34.993 40.8171 35.5067 39.8986 36.0982 38.809C36.6897 37.7505 37.2735 36.5674 37.8494 35.2599C38.4254 33.9523 38.9624 32.5357 39.4606 31.0102C39.9898 29.4847 40.3946 27.8814 40.6747 26.2002L40.9549 24.7525L39.554 25.2195C39.0558 25.3752 38.5421 25.4997 38.0129 25.5931C37.4836 25.6865 36.9544 25.7332 36.4251 25.7332C35.1175 25.7332 33.8878 25.4842 32.7359 24.986C31.5528 24.4879 30.5254 23.803 29.6537 22.9313C28.782 22.0595 28.0971 21.0322 27.599 19.8491C27.1008 18.6972 26.8518 17.4519 26.8518 16.1132C26.8518 14.8056 27.1008 13.5603 27.599 12.3772C28.0971 11.2253 28.782 10.2135 29.6537 9.34179C30.5254 8.47008 31.5373 7.78515 32.6892 7.28703C33.8722 6.7889 35.1175 6.53984 36.4251 6.53984C37.7638 6.53984 39.0091 6.7889 40.1611 7.28703C41.3441 7.78515 42.3715 8.47008 43.2432 9.34179C44.1149 10.2135 44.7998 11.2253 45.298 12.3772C45.7961 13.5603 46.0452 14.8056 46.0452 16.1132V16.2066C46.0452 16.2066 46.0452 16.2144 46.0452 16.2299C46.0452 16.2455 46.0452 16.2533 46.0452 16.2533C46.0763 16.7203 46.0685 17.7554 46.0218 19.3588C45.9751 20.9621 45.6871 22.8534 45.1579 25.0327Z" fill="#B27647"/>
</svg>
