<svg width="60" height="60" viewBox="0 0 60 60" fill="none" xmlns="http://www.w3.org/2000/svg">
<path d="M29.0179 2.51723L18.6327 7.37184C17.7498 7.78434 17.2077 8.72512 17.2717 9.73106C17.4522 12.5567 18.1368 18.349 20.729 22.67C23.9987 28.1203 28.0588 29.5468 29.4801 29.892C29.823 29.9747 30.178 29.9747 30.5207 29.892C31.9417 29.5468 36.002 28.1203 39.2718 22.67C41.8642 18.3493 42.5486 12.5564 42.729 9.73106C42.793 8.72512 42.2505 7.78434 41.368 7.37184L30.9829 2.51723C30.358 2.22473 29.6425 2.22473 29.0179 2.51723Z" fill="#FFA91A"/>
<path d="M24.6419 25.8941C24.5233 25.8941 24.4047 25.8496 24.3136 25.7601C23.2849 24.7504 22.3495 23.5483 21.5332 22.1877C19.7079 19.1455 18.8815 15.3231 18.5095 12.6519C18.4739 12.3955 18.6527 12.1588 18.9091 12.1232C19.166 12.0852 19.4022 12.2662 19.4381 12.5228C19.7981 15.1073 20.5931 18.7982 22.3371 21.7051C23.1126 22.998 23.9986 24.137 24.9703 25.0907C25.1552 25.2721 25.1578 25.5688 24.9764 25.7537C24.8847 25.8473 24.7633 25.8941 24.6419 25.8941ZM18.7589 11.193C18.5193 11.193 18.315 11.0104 18.2927 10.7671L18.2791 10.6159C18.2568 10.3579 18.4481 10.131 18.7059 10.1087C18.9621 10.083 19.1908 10.2775 19.2131 10.5353L19.2262 10.6813C19.2499 10.9391 19.06 11.1672 18.8022 11.1909C18.7877 11.1923 18.7732 11.193 18.7589 11.193Z" fill="#FFC91D"/>
<path d="M41.3682 7.37176L37.3286 5.4834C37.8158 5.96762 38.0879 6.65973 38.0418 7.38723C37.8611 10.2126 37.1769 16.0054 34.5845 20.3261C31.3147 25.7765 27.2546 27.2029 25.8334 27.5482C25.5435 27.6182 25.2451 27.6253 24.9521 27.5768C26.9075 29.1143 28.6473 29.6896 29.4803 29.8919C29.8232 29.9746 30.1782 29.9746 30.5209 29.8919C31.9419 29.5467 36.0022 28.12 39.272 22.6699C41.8644 18.3489 42.5488 12.5564 42.7293 9.73098C42.7932 8.72504 42.2507 7.78426 41.3682 7.37176Z" fill="#F79219"/>
<path d="M41.3682 7.37203L39.4986 6.49805C40.0948 6.9818 40.4372 7.74937 40.3857 8.55938C40.205 11.3848 39.5208 17.1776 36.9284 21.4983C33.6586 26.9487 29.5986 28.3751 28.1773 28.7203C27.8346 28.803 27.4796 28.803 27.1367 28.7203C26.8789 28.6577 26.5332 28.5588 26.1221 28.4074C27.5832 29.3353 28.8183 29.7314 29.4804 29.8922C29.8233 29.9749 30.1784 29.9749 30.5211 29.8922C31.9421 29.547 36.0024 28.1203 39.2721 22.6702C41.8646 18.3492 42.5489 12.5566 42.7294 9.73125C42.7932 8.72531 42.2506 7.78453 41.3682 7.37203Z" fill="#EF7816"/>
<path d="M29.3095 6.54723L21.9998 9.96418C21.3782 10.2546 20.9969 10.9167 21.0416 11.6247C21.1687 13.6136 21.6505 17.6906 23.4752 20.7318C25.7767 24.5681 28.6342 25.5721 29.6345 25.8152C29.8759 25.8736 30.1258 25.8736 30.367 25.8152C31.3673 25.5721 34.225 24.5681 36.5263 20.7318C38.3509 17.6906 38.8326 13.6134 38.9598 11.6247C39.0048 10.9167 38.623 10.2546 38.0017 9.96418L30.6923 6.54723C30.2526 6.34168 29.7489 6.34168 29.3095 6.54723Z" fill="#F1F2F2"/>
<path d="M38.0014 9.96408L33.8384 8.01807C34.1365 8.35346 34.302 8.80533 34.2718 9.28088C34.1447 11.2696 33.6631 15.3467 31.8382 18.388C29.5367 22.2242 26.6792 23.2283 25.6789 23.4711C25.6646 23.4746 25.65 23.4758 25.6357 23.4788C27.3265 25.1014 28.9343 25.6449 29.6337 25.8149C29.8751 25.8732 30.125 25.8732 30.3661 25.8149C31.3664 25.5718 34.2242 24.5678 36.5255 20.7317C38.3501 17.6905 38.8318 13.6133 38.959 11.6246C39.0043 10.9168 38.6225 10.2545 38.0014 9.96408Z" fill="#E6E7E8"/>
<path d="M29.5177 20.8151C29.2268 20.8151 28.9451 20.7068 28.7283 20.5093L25.3659 17.4446C24.8876 17.0086 24.8531 16.2676 25.2893 15.7892C25.725 15.3108 26.4663 15.2764 26.9447 15.7126L29.3592 17.9133L33.3804 12.6129C33.7713 12.0976 34.5066 11.9965 35.0224 12.3877C35.5378 12.7789 35.6388 13.5141 35.2477 14.0297L30.4512 20.352C30.2522 20.614 29.9522 20.7807 29.6245 20.8107C29.5889 20.8135 29.5533 20.8151 29.5177 20.8151Z" fill="#414042"/>
<path d="M35.4269 40.2081C35.8258 40.0623 36.1779 39.7818 36.4066 39.3852L37.7057 37.135C37.7704 37.0229 37.732 36.8795 37.62 36.8148L28.0582 31.2943C26.9371 30.6472 25.5037 31.0311 24.8566 32.1522L24.0107 33.617L35.4269 40.2081Z" fill="#FCC4AE"/>
<path d="M42.082 30.0991L23.9756 40.5529L32.0461 54.5315L39.7997 50.055C41.298 49.1899 42.5367 47.9383 43.3863 46.4311L49.4798 42.9131L42.082 30.0991Z" fill="#F2AD97"/>
<path d="M42.7129 45.2646L48.8062 41.7466L49.4788 42.9114L43.3854 46.4295L42.7129 45.2646Z" fill="#E59076"/>
<path d="M52.1552 43.7951L58.1252 40.3484L48.6255 23.8945L42.6555 27.3413C41.7588 27.859 41.4515 29.0058 41.9693 29.9025L49.594 43.1088C50.1117 44.0055 51.2585 44.3128 52.1552 43.7951Z" fill="#377DE2"/>
<path d="M42.6555 27.3413L42.779 27.27L49.3847 38.7115C49.7561 39.3549 50.5788 39.5752 51.2222 39.2039L55.9038 36.5009L58.1252 40.3484L52.1552 43.7951C51.2585 44.3128 50.1117 44.0056 49.594 43.1088L41.9693 29.9025C41.4515 29.0058 41.7588 27.859 42.6555 27.3413Z" fill="#2266D3"/>
<path d="M42.7143 45.2656L43.3869 46.4305C42.5373 47.9377 41.2986 49.1893 39.8003 50.0544L32.0467 54.5309L31.374 53.3661L39.1276 48.8895C40.626 48.0245 41.8646 46.7729 42.7143 45.2656Z" fill="#E59076"/>
<path d="M45.1245 45.8069L17.9176 30.0991L10.5195 42.9126L16.613 46.4306C17.4627 47.9379 18.7013 49.1894 20.1997 50.0545L26.4245 53.6484L32.9769 57.4315C33.9418 57.9886 35.1758 57.6581 35.7331 56.693C36.2902 55.728 35.9598 54.494 34.9946 53.9369L38.4891 55.9544C39.4541 56.5115 40.688 56.1811 41.2452 55.2159C41.8023 54.251 41.4718 53.017 40.5066 52.4599L42.2539 53.4687C43.2188 54.0258 44.4528 53.6953 45.0099 52.7301C45.567 51.765 45.2363 50.5312 44.2714 49.9739L43.1066 49.3015C44.0715 49.8586 45.3055 49.5279 45.8626 48.563C46.4202 47.598 46.0895 46.3643 45.1245 45.8069Z" fill="#FCC4AE"/>
<path d="M7.845 43.7951L1.875 40.3484L11.3747 23.8945L17.3447 27.3413C18.2414 27.859 18.5487 29.0058 18.0309 29.9025L10.4063 43.1088C9.88852 44.0055 8.74172 44.3128 7.845 43.7951Z" fill="#377DE2"/>
<path d="M17.3447 27.3413L17.2212 27.27L10.6155 38.7115C10.2441 39.3549 9.42141 39.5752 8.77805 39.2039L4.09641 36.5009L1.875 40.3484L7.845 43.7951C8.74172 44.3128 9.88852 44.0056 10.4063 43.1088L18.0309 29.9025C18.5487 29.0058 18.2414 27.859 17.3447 27.3413Z" fill="#2266D3"/>
<path d="M41.4822 54.5405C40.8513 55.0611 39.9428 55.1696 39.1928 54.7367L31.4756 50.2812L30.7725 51.4991L38.4897 55.9545C39.4546 56.5116 40.6886 56.1812 41.246 55.216C41.37 55.0009 41.4436 54.7719 41.4822 54.5405Z" fill="#F2AD97"/>
<path d="M45.2471 52.0549C44.6161 52.5755 43.7077 52.684 42.9577 52.2511L33.4932 46.7866L32.79 48.0044L42.2546 53.4689C43.2195 54.026 44.4535 53.6955 45.0106 52.7304C45.1348 52.5152 45.2082 52.2862 45.2471 52.0549Z" fill="#F2AD97"/>
<path d="M46.0998 47.8876C45.4689 48.4082 44.5604 48.5167 43.8104 48.0838L35.5107 43.292L34.8076 44.5098L43.1073 49.3016C44.0722 49.8587 45.3062 49.528 45.8633 48.5631C45.9875 48.3479 46.0611 48.1189 46.0998 47.8876Z" fill="#F2AD97"/>
<path d="M10.5186 42.9131L11.1911 41.7482L17.2844 45.2663L16.6119 46.4312L10.5186 42.9131Z" fill="#F2AD97"/>
<path d="M33.6802 56.214L20.8726 48.89C19.3742 48.0249 18.1355 46.7734 17.2859 45.2661L16.6133 46.431C17.4629 47.9382 18.7016 49.1898 20.1999 50.0549L32.9771 57.4318C33.942 57.9889 35.176 57.6582 35.7334 56.6933C35.8576 56.4784 35.9309 56.2492 35.9696 56.0178C35.3387 56.5384 34.43 56.6469 33.6802 56.214Z" fill="#F2AD97"/>
<path d="M27.0227 57.4313L30.0806 55.666C31.0455 55.1089 31.3762 53.8749 30.8191 52.91C30.262 51.9451 29.028 51.6144 28.0631 52.1715L25.0052 53.9368C24.0403 54.4939 23.7096 55.7279 24.2667 56.6928C24.8238 57.6577 26.0578 57.9884 27.0227 57.4313Z" fill="#F2AD97"/>
<path d="M29.4078 54.5016L26.3499 56.2669C25.5903 56.7054 24.6687 56.5871 24.0371 56.0492C24.0777 56.2695 24.1477 56.4882 24.2663 56.6935C24.8234 57.6584 26.0574 57.9891 27.0223 57.432L30.0802 55.6667C31.0452 55.1096 31.3759 53.8756 30.8187 52.9107C30.7002 52.7054 30.5462 52.5352 30.3755 52.3901C30.5258 53.2055 30.1677 54.0629 29.4078 54.5016Z" fill="#E59076"/>
<path d="M21.51 55.9545L27.48 52.5078C28.4449 51.9507 28.7756 50.7167 28.2185 49.7518C27.6614 48.7869 26.4274 48.4562 25.4625 49.0133L19.4925 52.46C18.5276 53.0171 18.1969 54.2511 18.754 55.216C19.3111 56.1809 20.5451 56.5116 21.51 55.9545Z" fill="#F2AD97"/>
<path d="M26.8082 51.3429L20.8382 54.7896C20.0786 55.2282 19.157 55.1098 18.5254 54.5719C18.5659 54.7922 18.636 55.0109 18.7546 55.2162C19.3117 56.1811 20.5457 56.5118 21.5106 55.9547L27.4806 52.508C28.4455 51.9509 28.7762 50.7169 28.2191 49.752C28.1005 49.5467 27.9466 49.3765 27.7759 49.2314C27.9262 50.0468 27.5678 50.9042 26.8082 51.3429Z" fill="#E59076"/>
<path d="M17.7454 53.4685L24.8802 49.3491C25.8451 48.792 26.1758 47.558 25.6187 46.5931C25.0616 45.6282 23.8276 45.2975 22.8627 45.8546L15.7279 49.974C14.7629 50.5311 14.4322 51.7651 14.9894 52.73C15.5465 53.6949 16.7804 54.0256 17.7454 53.4685Z" fill="#F2AD97"/>
<path d="M24.2074 48.1845L17.0726 52.3038C16.313 52.7424 15.3914 52.624 14.7598 52.0859C14.8003 52.3062 14.8704 52.5249 14.989 52.7302C15.5461 53.6951 16.7801 54.0258 17.745 53.4687L24.8798 49.3493C25.8448 48.7922 26.1755 47.5582 25.6184 46.5933C25.4998 46.388 25.3458 46.2178 25.1752 46.0728C25.3254 46.8886 24.967 47.746 24.2074 48.1845Z" fill="#E59076"/>
<path d="M16.8928 49.3015L22.2804 46.1909C23.2453 45.6338 23.576 44.3998 23.0189 43.4349C22.4618 42.47 21.2278 42.1393 20.2629 42.6964L14.8753 45.807C13.9104 46.3641 13.5797 47.5981 14.1368 48.563C14.6939 49.5279 15.9277 49.8586 16.8928 49.3015Z" fill="#F2AD97"/>
<path d="M21.6076 45.0263L16.22 48.1367C15.4604 48.5752 14.5389 48.4568 13.9072 47.9189C13.9478 48.1392 14.0179 48.3579 14.1364 48.5632C14.6936 49.5281 15.9275 49.8588 16.8925 49.3017L22.28 46.1913C23.245 45.6342 23.5757 44.4003 23.0186 43.4351C22.9 43.2298 22.746 43.0596 22.5754 42.9146C22.7254 43.7304 22.3672 44.5878 21.6076 45.0263Z" fill="#E59076"/>
<path d="M21.6225 45.7946L22.0945 45.5221C22.6549 45.1984 22.8471 44.4817 22.5234 43.9213L22.3502 43.6213C22.0265 43.0609 21.3098 42.8687 20.7494 43.1924L20.2774 43.4649C20.0531 43.5943 19.9765 43.881 20.1058 44.1053L20.9822 45.6231C21.1115 45.8471 21.3982 45.924 21.6225 45.7946Z" fill="#FFD2C0"/>
<path d="M24.2225 48.9528L24.6946 48.6803C25.255 48.3566 25.4472 47.6399 25.1235 47.0795L24.9503 46.7795C24.6266 46.2191 23.9099 46.0269 23.3495 46.3506L22.6684 46.7439C22.5597 46.8067 22.5224 46.9456 22.5852 47.0544L23.5822 48.7813C23.7116 49.0056 23.9983 49.0824 24.2225 48.9528Z" fill="#FFD2C0"/>
<path d="M26.8227 52.111L27.2947 51.8385C27.8551 51.5148 28.0473 50.7981 27.7236 50.2377L27.5504 49.9377C27.2267 49.3773 26.51 49.1851 25.9496 49.5088L25.4776 49.7814C25.2533 49.9107 25.1767 50.1974 25.306 50.4217L26.1824 51.9395C26.3117 52.1635 26.5986 52.2404 26.8227 52.111Z" fill="#FFD2C0"/>
<path d="M29.4223 55.2697L29.8943 54.9972C30.4547 54.6735 30.6469 53.9568 30.3232 53.3964L30.15 53.0964C29.8264 52.536 29.1096 52.3438 28.5492 52.6675L28.0772 52.94C27.8529 53.0694 27.7763 53.3561 27.9056 53.5804L28.782 55.0982C28.9114 55.3222 29.198 55.3991 29.4223 55.2697Z" fill="#FFD2C0"/>
<path d="M27.9815 39.0169L36.3252 34.1995L35.1432 32.1523C34.4961 31.0313 33.0627 30.6471 31.9417 31.2945L22.3799 36.8149C22.2679 36.8796 22.2294 37.023 22.2941 37.1351L22.5386 37.5586C23.639 39.4643 26.0757 40.1173 27.9815 39.0169Z" fill="#F2AD97"/>
<path d="M25.7012 37.1461L26.7712 36.5283C27.0927 36.3426 27.2031 35.9313 27.0173 35.6095L26.3798 34.5054L23.3418 36.2594L23.5155 36.5604C23.9575 37.3256 24.936 37.5879 25.7012 37.1461Z" fill="#FFD2C0"/>
</svg>
