<svg width="60" height="60" viewBox="0 0 60 60" fill="none" xmlns="http://www.w3.org/2000/svg">
<g clip-path="url(#clip0_217_540)">
<path d="M42.3032 41.0322V60.0001L29.9978 51.7965L17.6924 60.0001V41.0322H42.3032Z" fill="#FF637B"/>
<path d="M42.3035 41.0322V60.0001L29.998 51.7965V41.0322H42.3035Z" fill="#E63950"/>
<path d="M53.4541 23.4529C53.4541 21.1044 52.54 18.8976 50.8794 17.2369C49.0007 15.3595 49.3828 13.1996 49.3347 12.9054C49.3347 8.05828 45.3923 4.11587 40.5452 4.11587C40.2405 4.06547 38.0923 4.44987 36.2125 2.57124C34.4991 0.856691 32.2478 0 29.9977 0C27.7475 0 25.4962 0.856691 23.7828 2.57124C21.9042 4.44882 19.7443 4.06664 19.4502 4.11587C14.603 4.11587 10.6606 8.05828 10.6606 12.9054C10.6102 13.2101 10.9946 15.3583 9.11597 17.2369C5.68921 20.6649 5.68921 26.241 9.11597 29.6678C10.9946 31.5464 10.6125 33.7063 10.6606 34.0004C10.6606 38.8464 14.603 42.79 19.4502 42.79C19.7549 42.8392 21.903 42.4548 23.7828 44.3346C25.4423 45.9941 27.6503 46.9082 29.9977 46.9082C32.3451 46.9082 34.553 45.9941 36.2125 44.3346C38.0911 42.456 40.251 42.8381 40.5452 42.79C45.3923 42.79 49.3347 38.8464 49.3347 34.0004C49.3851 33.6957 49.0007 31.5476 50.8794 29.6678C52.54 28.0071 53.4541 25.8003 53.4541 23.4529Z" fill="#FDBF00"/>
<path d="M50.8797 29.6678C49.0011 31.5476 49.3855 33.6957 49.3351 34.0004C49.3351 38.8464 45.3927 42.79 40.5455 42.79C40.2514 42.8381 38.0915 42.456 36.2129 44.3346C34.5534 45.9941 32.3455 46.9082 29.998 46.9082V0C32.2482 0 34.4995 0.856691 36.2129 2.57124C38.0927 4.44987 40.2408 4.06547 40.5455 4.11587C45.3927 4.11587 49.3351 8.05828 49.3351 12.9054C49.3832 13.1996 49.0011 15.3595 50.8797 17.2369C52.5404 18.8976 53.4545 21.1044 53.4545 23.4529C53.4545 25.8003 52.5404 28.0071 50.8797 29.6678Z" fill="#FF9100"/>
<path d="M29.9978 10.5439C23.2122 10.5439 17.6924 16.0638 17.6924 22.8494C17.6924 29.6349 23.2122 35.1548 29.9978 35.1548C36.7833 35.1548 42.3032 29.6349 42.3032 22.8494C42.3032 16.0638 36.7833 10.5439 29.9978 10.5439Z" fill="#FFDA2D"/>
<path d="M42.3035 22.8494C42.3035 29.6349 36.7836 35.1548 29.998 35.1548V10.5439C36.7836 10.5439 42.3035 16.0638 42.3035 22.8494Z" fill="#FDBF00"/>
</g>
<defs>
<clipPath id="clip0_217_540">
<rect width="60" height="60" fill="white"/>
</clipPath>
</defs>
</svg>
