<svg width="60" height="60" viewBox="0 0 60 60" fill="none" xmlns="http://www.w3.org/2000/svg">
<g clip-path="url(#clip0_217_619)">
<path d="M24.9403 12.4966H23.0345L22.9173 12.6221V13.7446C22.9173 14.7476 22.3257 15.3187 21.4341 15.7783C20.2103 16.4092 19.8425 19.9897 22.1435 21.1576L22.7973 21.2563L27.3741 19.4847V16.8898L24.9403 12.4966Z" fill="#365E7D"/>
<path d="M24.6015 15.7783C25.282 15.4274 25.7868 15.0111 25.9881 14.388L24.9403 12.4966H23.0345L22.9173 12.6221V13.7446C22.9173 14.7476 22.3257 15.3187 21.4341 15.7783C20.2103 16.4092 19.8425 19.9897 22.1435 21.1576L22.7973 21.2563L24.5381 20.5825C23.1228 19.0975 23.5389 16.3263 24.6015 15.7783Z" fill="#2B4D66"/>
<path d="M38.5595 15.7785C37.6654 15.3176 37.0766 14.7463 37.0766 13.745V12.6045L36.8896 12.4277H34.8905L32.5947 17.0689V19.4177L37.3191 21.2565L37.7586 21.1234C40.0119 19.9241 39.7714 16.4034 38.5595 15.7785Z" fill="#365E7D"/>
<path d="M40.5146 22.1905C40.2691 22.0955 36.9727 20.8188 34.8912 20.0127L34.3894 20.2351H25.7102L25.0901 20.0156C23.0173 20.8193 19.5377 22.1682 19.4802 22.1905C18.2729 22.6874 16.6562 24.2508 16.6562 26.5706V34.4643H43.3383C43.3383 31.9315 43.3383 26.9684 43.3383 26.5706C43.3384 24.5727 42.0593 22.8262 40.5146 22.1905Z" fill="#FF7F87"/>
<path d="M37.0675 9.3325L36.9097 9.17383H35.0273V12.4722L35.1313 12.6869H36.5521C37.5002 12.6869 38.2688 11.9182 38.2688 10.9702C38.2689 10.2017 37.7637 9.55141 37.0675 9.3325Z" fill="#FFCEBE"/>
<path d="M22.9173 9.31627L22.9175 9.31791C22.1938 9.51971 21.6621 10.1821 21.6621 10.97C21.6621 11.9181 22.4307 12.6867 23.3788 12.6867H24.8621L25.0252 12.4966V9.16357H23.0387L22.9173 9.31627Z" fill="#FFCEBE"/>
<path d="M36.7098 9.17383H35.0283V12.4722L35.1323 12.6869H36.553C36.606 12.6869 36.6582 12.6836 36.71 12.6789V9.17383H36.7098Z" fill="#FFB1A0"/>
<path d="M23.3436 10.9704C23.3436 10.1823 23.8753 9.51996 24.5991 9.31828L24.5988 9.31664L24.7205 9.16406H23.0389L22.9173 9.31664L22.9175 9.31828C22.1938 9.52008 21.6621 10.1824 21.6621 10.9704C21.6621 11.9184 22.4307 12.6871 23.3788 12.6871H24.8621L24.8715 12.6762C24.0123 12.5821 23.3436 11.8546 23.3436 10.9704Z" fill="#FFB1A0"/>
<path d="M33.218 19.3649C33.0179 19.2876 32.8849 19.095 32.8842 18.8793L32.8828 17.13L32.6532 16.8901H27.3742L27.1066 17.1403V18.8761C27.1066 19.2757 26.7503 19.3719 26.5983 19.4309C26.5645 19.444 25.9474 19.6832 25.0898 20.0158C25.7054 22.0043 27.5325 23.5718 30.0497 23.5803C32.3084 23.5879 34.2346 22.0704 34.8908 20.0128C33.9934 19.6653 33.3214 19.405 33.218 19.3649Z" fill="#FFCEBE"/>
<path d="M29.9972 16.8901H27.3742L27.1066 17.1403V18.8761C27.1066 19.2757 26.7503 19.3719 26.5983 19.4309C26.5645 19.444 25.9474 19.6832 25.0898 20.0158C25.7011 21.9904 27.5073 23.5491 29.9972 23.5791V16.8901Z" fill="#FFB1A0"/>
<path d="M34.6036 8.8193H32.3488L30.5771 6.61816H29.5213L27.8789 8.3973V12.9361C27.8789 15.0799 29.1968 17.0779 31.3289 17.8407C33.5098 17.2666 35.1313 15.2463 35.1313 12.8929V9.25348L34.6036 8.8193Z" fill="#FFDECF"/>
<path d="M27.9998 12.9424V8.2666L27.3741 8.94441H25.0898L24.8623 9.25332V12.9424C24.8623 15.5811 26.925 17.9933 30.0496 18.0038C30.5819 18.0056 31.0955 17.9223 31.5786 17.7676C29.3744 17.0984 27.9998 15.0962 27.9998 12.9424Z" fill="#FFCEBE"/>
<path d="M29.9034 0.000600019C26.0125 0.0506391 22.917 3.29392 22.917 7.18513V9.31806C23.0641 9.27705 23.2184 9.25349 23.3786 9.25349H24.862H26.2045C26.3795 9.25349 27.3644 9.17333 27.2921 9.17884C28.5382 9.08345 29.616 8.14197 29.9129 6.91865C29.9223 6.87962 29.9566 6.85173 29.9968 6.85173C30.037 6.85173 30.0713 6.87962 30.0807 6.91865C30.3774 8.13915 31.4452 9.06962 32.673 9.1738C33.5648 9.24939 33.5768 9.25349 33.7377 9.25349H35.1312H36.552C36.735 9.25349 36.9111 9.28279 37.0765 9.33576V7.07978C37.0765 3.13865 33.8564 -0.0502594 29.9034 0.000600019Z" fill="#365E7D"/>
<path d="M26.0845 7.18512C26.0845 3.80473 28.4212 0.914654 31.5855 0.180943C31.0455 0.0570762 30.4826 -0.00690815 29.9034 0.00059185C26.0125 0.0506309 22.917 3.29391 22.917 7.18512V9.31805C23.0641 9.27704 23.2184 9.25348 23.3786 9.25348H24.862H26.0845V7.18512Z" fill="#2B4D66"/>
<path d="M38.2919 26.2173H36.3861L36.2689 26.3428V27.4653C36.2689 28.4683 35.6773 29.0394 34.7856 29.499C33.5618 30.1299 33.1941 33.7104 35.4951 34.8783L36.1489 34.9771L40.7256 33.2054V30.6105L38.2919 26.2173Z" fill="#365E7D"/>
<path d="M37.9531 29.499C38.6336 29.1481 39.1383 28.7318 39.3396 28.1087L38.2919 26.2173H36.3861L36.2689 26.3428V27.4653C36.2689 28.4683 35.6773 29.0394 34.7856 29.499C33.5618 30.1299 33.1941 33.7104 35.4951 34.8783L36.1489 34.9771L37.8897 34.3032C36.4744 32.8182 36.8904 30.047 37.9531 29.499Z" fill="#2B4D66"/>
<path d="M51.911 29.4987C51.017 29.0378 50.4281 28.4665 50.4281 27.4653V26.3247L50.2412 26.1479H48.2421L45.9463 30.7892V33.1379L50.6707 34.9767L51.1102 34.8436C53.3634 33.6443 53.123 30.1235 51.911 29.4987Z" fill="#365E7D"/>
<path d="M53.8652 35.9107C53.6196 35.8157 50.3233 34.539 48.2418 33.7329L47.74 33.9553H39.0607L38.4407 33.7358C36.3679 34.5395 32.8882 35.8885 32.8308 35.9107C31.6234 36.4076 30.0068 37.971 30.0068 40.2908V46.3936H51.8552V43.0334H56.689C56.689 40.5007 56.689 40.6886 56.689 40.2907C56.689 38.2929 55.4099 36.5465 53.8652 35.9107Z" fill="#FFD064"/>
<path d="M50.4189 23.0527L50.2613 22.894H48.3789V26.1924L48.4829 26.4071H49.9036C50.8517 26.4071 51.6203 25.6385 51.6203 24.6904C51.6203 23.9219 51.1152 23.2716 50.4189 23.0527Z" fill="#FFCEBE"/>
<path d="M36.2689 23.037L36.2691 23.0386C35.5453 23.2404 35.0137 23.9028 35.0137 24.6907C35.0137 25.6388 35.7823 26.4074 36.7304 26.4074H38.2137L38.3767 26.2173V22.8843H36.3903L36.2689 23.037Z" fill="#FFCEBE"/>
<path d="M50.0604 22.894H48.3789V26.1924L48.4829 26.4071H49.9036C49.9566 26.4071 50.0088 26.4038 50.0605 26.3991V22.894H50.0604Z" fill="#FFB1A0"/>
<path d="M36.6952 24.6906C36.6952 23.9025 37.2269 23.2402 37.9506 23.0385L37.9504 23.0369L38.072 22.8843H36.3905L36.2689 23.0369L36.2691 23.0385C35.5453 23.2403 35.0137 23.9026 35.0137 24.6906C35.0137 25.6387 35.7823 26.4073 36.7304 26.4073H38.2137L38.2231 26.3964C37.3639 26.3023 36.6952 25.5748 36.6952 24.6906Z" fill="#FFB1A0"/>
<path d="M51.8555 42.9263V46.3937H55.7483C56.268 46.3937 56.6893 45.9724 56.6893 45.4527C56.6893 45.0083 56.6893 46.2483 56.6893 42.9263H51.8555Z" fill="#FFCEBE"/>
<path d="M46.5695 33.0851C46.3695 33.0078 46.2365 32.8152 46.2359 32.5995L46.2345 30.8502L46.0049 30.6104H40.7257L40.4582 30.8605V32.5963C40.4582 32.9959 40.1018 33.0921 39.9498 33.1511C39.9161 33.1642 39.299 33.4034 38.4414 33.736C39.057 35.7245 40.8841 37.292 43.4013 37.3005C45.6599 37.3081 47.5861 35.7906 48.2424 33.733C47.345 33.3855 46.673 33.1252 46.5695 33.0851Z" fill="#FFCEBE"/>
<path d="M43.3488 30.6104H40.7257L40.4582 30.8605V32.5963C40.4582 32.9959 40.1018 33.0921 39.9498 33.1511C39.9161 33.1642 39.299 33.4034 38.4414 33.736C39.0527 35.7106 40.8589 37.2693 43.3488 37.2993V30.6104Z" fill="#FFB1A0"/>
<path d="M52.6604 46.3939V40.7907C52.6604 40.3459 52.2998 39.9854 51.8551 39.9854C51.4104 39.9854 51.0498 40.3459 51.0498 40.7907V46.3939H52.6604Z" fill="#FFC250"/>
<path d="M47.955 22.5395H45.7002L43.9286 20.3384H42.8727L41.2305 22.1175V26.6563C41.2305 28.8001 42.5484 30.7981 44.6805 31.561C46.8613 30.9869 48.4829 28.9665 48.4829 26.6131V22.9738L47.955 22.5395Z" fill="#FFDECF"/>
<path d="M41.3513 26.6631V21.9873L40.7257 22.6651H38.4413L38.2139 22.974V26.6631C38.2139 29.3018 40.2766 31.714 43.4012 31.7245C43.9334 31.7263 44.4471 31.643 44.9301 31.4883C42.7259 30.8191 41.3513 28.8169 41.3513 26.6631Z" fill="#FFCEBE"/>
<path d="M43.2549 13.7208C39.3641 13.7709 36.2686 17.0141 36.2686 20.9053V23.0383C36.4156 22.9973 36.57 22.9737 36.7302 22.9737H38.2135H39.556C39.7311 22.9737 40.7159 22.8935 40.6436 22.8991C41.8898 22.8037 42.9676 21.8622 43.2644 20.6389C43.2739 20.5998 43.3081 20.5719 43.3483 20.5719C43.3885 20.5719 43.4229 20.5998 43.4322 20.6389C43.7289 21.8594 44.7968 22.7898 46.0245 22.894C46.9163 22.9696 46.9284 22.9737 47.0893 22.9737H48.4828H49.9036C50.0866 22.9737 50.2626 23.003 50.4281 23.056V20.8C50.4281 16.8589 47.208 13.67 43.2549 13.7208Z" fill="#365E7D"/>
<path d="M39.436 20.9053C39.436 17.5249 41.7727 14.6349 44.937 13.9012C44.397 13.7773 43.8342 13.7133 43.2549 13.7208C39.3641 13.7708 36.2686 17.0141 36.2686 20.9053V23.0383C36.4156 22.9973 36.57 22.9737 36.7302 22.9737H38.2135H39.436V20.9053Z" fill="#2B4D66"/>
<path d="M23.2396 22.6985H22.8309L22.6467 22.522H21.5596V26.1467L21.8768 26.3131H23.2396C24.1877 26.3131 24.9563 25.5039 24.9563 24.5057C24.9563 23.5076 24.1877 22.6985 23.2396 22.6985Z" fill="#FFCEBE"/>
<path d="M10.0634 22.6987C9.1166 22.7003 8.34961 23.5087 8.34961 24.5058C8.34961 25.504 9.11824 26.3132 10.0663 26.3132H11.4292L11.6508 25.9042V22.522H10.3796L10.0634 22.6987Z" fill="#FFCEBE"/>
<path d="M23.3515 22.7044C23.3143 22.7019 23.2774 22.6985 23.2396 22.6985H22.8309L22.6467 22.522H21.5596V26.1467L21.8768 26.3131H23.2396C23.2773 26.3131 23.3143 26.3097 23.3515 26.3071V22.7044Z" fill="#FFB1A0"/>
<path d="M10.1415 24.5058C10.1415 23.5817 10.8007 22.821 11.6508 22.713V22.522H10.3796L10.0634 22.6987C9.1166 22.7003 8.34961 23.5087 8.34961 24.5058C8.34961 25.504 9.11824 26.3132 10.0663 26.3132H11.4292L11.4572 26.2615C10.7029 26.0711 10.1415 25.3584 10.1415 24.5058Z" fill="#FFB1A0"/>
<path d="M27.1698 35.9111C26.9271 35.8171 23.7013 34.5677 21.6168 33.7604L21.188 33.966H12.0704L11.6836 33.7441L6.13551 35.9111C4.92813 36.4079 3.31152 37.9713 3.31152 40.2912V42.7471H8.14539V46.3939H29.9937C29.9937 43.8612 29.9937 40.689 29.9937 40.2913C29.9937 38.2932 28.7146 36.5468 27.1698 35.9111Z" fill="#B3E59F"/>
<path d="M7.44754 38.3949C7.44754 36.7592 7.8359 35.6277 8.74879 34.8901L6.13551 35.9107C4.92813 36.4076 3.31152 37.971 3.31152 40.2908V42.7467H7.44742C7.44754 39.7972 7.44754 39.7378 7.44754 38.3949Z" fill="#95D6A4"/>
<path d="M8.14527 42.6396H3.31152V45.4529C3.31152 45.9726 3.73293 46.3939 4.25254 46.3939H8.14539L8.14527 42.6396Z" fill="#FFB1A0"/>
<path d="M19.8736 33.0852C19.6734 33.0078 19.5405 32.8153 19.54 32.5996L19.5386 30.8833L19.1838 30.521H14.0836L13.7623 30.8757V32.5965C13.7623 32.8115 13.6589 32.9383 13.5398 33.0191L11.6836 33.744C12.3335 35.7383 14.1868 37.2979 16.7271 37.2979C19.0037 37.2979 20.9386 35.8124 21.6168 33.7603C20.6842 33.3991 19.9798 33.1263 19.8736 33.0852Z" fill="#FFCEBE"/>
<path d="M16.6502 30.521H14.0836L13.7623 30.8757V32.5965C13.7623 32.8115 13.6589 32.9383 13.5398 33.0191L11.6836 33.744C12.3268 35.718 14.1497 37.2651 16.6502 37.2965V30.521Z" fill="#FFB1A0"/>
<path d="M8.95047 46.3939V40.7907C8.95047 40.3459 8.58988 39.9854 8.14516 39.9854C7.70043 39.9854 7.33984 40.3459 7.33984 40.7907V46.3939H8.95047Z" fill="#95D6A4"/>
<path d="M21.6173 22.2534L21.1885 21.9671L20.8663 20.5713H20.24L17.6273 22.4682H15.313L15.1182 22.7829V26.5606C15.1182 28.6618 16.3755 30.623 18.4212 31.4345C20.4309 30.7323 21.877 28.8187 21.877 26.5726V22.8387L21.6173 22.2534Z" fill="#FFDECF"/>
<path d="M15.1949 26.5726V22.8797L15.4498 22.4683H11.6836L11.4287 22.8797V26.5726C11.4287 29.2638 13.5374 31.722 16.7271 31.722C17.3695 31.722 17.9843 31.6027 18.5518 31.3868C16.4762 30.6262 15.1949 28.6704 15.1949 26.5726Z" fill="#FFCEBE"/>
<path d="M21.5421 16.1011C21.0501 16.139 20.5986 15.8296 20.5039 15.3453C20.3444 14.5296 19.9406 13.7202 18.3632 13.7202H12.8906C10.8821 13.7202 9.25391 15.3484 9.25391 17.3569V21.3481C9.25391 22.1938 9.93945 22.8794 10.7852 22.8794H16.9964C18.3856 22.8794 19.5922 22.0999 20.2044 20.9549C20.2518 20.8662 20.3866 20.9008 20.3866 21.0014C20.3866 22.0343 21.2316 22.8794 22.2645 22.8794C22.8059 22.8794 23.2489 22.4364 23.2489 21.895V17.73C23.249 16.7489 22.393 16.0357 21.5421 16.1011Z" fill="#365E7D"/>
<path d="M12.3409 21.3482V17.3569C12.3409 15.3484 13.9691 13.7202 15.9775 13.7202H12.8906C10.8821 13.7202 9.25391 15.3484 9.25391 17.3569V21.3482C9.25391 22.1938 9.93945 22.8795 10.7852 22.8795H13.8721C13.0264 22.8794 12.3409 22.1938 12.3409 21.3482Z" fill="#2B4D66"/>
<path d="M36.5843 36.591H36.1757L35.9914 36.4146H34.9043V40.0393L35.2215 40.2057H36.5843C37.5325 40.2057 38.301 39.3965 38.301 38.3983C38.301 37.4002 37.5323 36.591 36.5843 36.591Z" fill="#FFCEBE"/>
<path d="M23.4081 36.5913C22.4613 36.5929 21.6943 37.4013 21.6943 38.3984C21.6943 39.3966 22.463 40.2058 23.411 40.2058H24.7739L24.9955 39.7968V36.4146H23.7244L23.4081 36.5913Z" fill="#FFCEBE"/>
<path d="M36.6962 36.597C36.6591 36.5944 36.6221 36.591 36.5843 36.591H36.1757L35.9914 36.4146H34.9043V40.0393L35.2215 40.2057H36.5843C36.622 40.2057 36.6591 40.2023 36.6962 40.1997V36.597Z" fill="#FFB1A0"/>
<path d="M23.4863 38.3984C23.4863 37.4743 24.1454 36.7136 24.9955 36.6056V36.4146H23.7244L23.4081 36.5913C22.4613 36.5929 21.6943 37.4013 21.6943 38.3984C21.6943 39.3966 22.463 40.2058 23.411 40.2058H24.7739L24.8019 40.1541C24.0476 39.9637 23.4863 39.251 23.4863 38.3984Z" fill="#FFB1A0"/>
<path d="M40.5146 49.8041C40.2719 49.7101 37.0461 48.4608 34.9615 47.6535L34.5327 47.859H25.4151L25.0284 47.6372L19.4802 49.8041C18.2729 50.301 16.6562 51.8644 16.6562 54.1842V56.6401H21.4901V60.0001H38.5046V56.64H43.3384C43.3384 54.1072 43.3384 54.582 43.3384 54.1841C43.3384 52.1863 42.0593 50.4399 40.5146 49.8041Z" fill="#80B4FB"/>
<path d="M20.7923 52.2879C20.7923 50.6522 21.1806 49.5208 22.0935 48.7832L19.4802 49.8038C18.2729 50.3007 16.6562 51.8641 16.6562 54.1839V56.6398H20.7921C20.7923 53.6903 20.7923 53.6309 20.7923 52.2879Z" fill="#61A2F9"/>
<path d="M21.4901 56.5322H16.6562V59.0587C16.6562 59.5784 17.0777 59.9997 17.5973 59.9997H21.4901V56.5322Z" fill="#FFB1A0"/>
<path d="M38.5049 56.5322V59.9997H42.3977C42.9175 59.9997 43.3387 59.5784 43.3387 59.0587C43.3387 58.6143 43.3387 59.8543 43.3387 56.5322H38.5049Z" fill="#FFCEBE"/>
<path d="M33.2184 46.9782C33.0183 46.9009 32.8854 46.7084 32.8848 46.4926L32.8834 44.7764L32.5286 44.4141H27.4283L27.107 44.7688V46.4896C27.107 46.7046 27.0036 46.8314 26.8846 46.9121L25.0283 47.6371C25.6782 49.6314 27.5316 51.191 30.0718 51.191C32.3484 51.191 34.2833 49.7054 34.9615 47.6534C34.029 47.2922 33.3246 47.0194 33.2184 46.9782Z" fill="#FFCEBE"/>
<path d="M29.995 44.4141H27.4283L27.107 44.7688V46.4896C27.107 46.7046 27.0036 46.8314 26.8846 46.9121L25.0283 47.6371C25.6716 49.6111 27.4944 51.1582 29.995 51.1896V44.4141Z" fill="#FFB1A0"/>
<path d="M22.2952 59.9997V54.6832C22.2952 54.2385 21.9346 53.8779 21.4899 53.8779C21.0452 53.8779 20.6846 54.2385 20.6846 54.6832V59.9997H22.2952Z" fill="#61A2F9"/>
<path d="M39.3098 59.9997V54.6832C39.3098 54.2385 38.9493 53.8779 38.5045 53.8779C38.0598 53.8779 37.6992 54.2385 37.6992 54.6832V59.9997H39.3098Z" fill="#61A2F9"/>
<path d="M34.962 36.1465L34.5332 35.8602L34.2111 34.4644H33.5847L30.972 36.3613H28.6578L28.4629 36.6759V40.4537C28.4629 42.5549 29.7202 44.5161 31.7659 45.3275C33.7756 44.6253 35.2217 42.7118 35.2217 40.4656V36.7318L34.962 36.1465Z" fill="#FFDECF"/>
<path d="M28.5396 40.4657V36.7728L28.7945 36.3613H25.0283L24.7734 36.7728V40.4657C24.7734 43.1569 26.8821 45.615 30.0718 45.615C30.7143 45.615 31.329 45.4957 31.8966 45.2799C29.8211 44.5192 28.5396 42.5635 28.5396 40.4657Z" fill="#FFCEBE"/>
<path d="M34.8868 29.9942C34.3948 30.032 33.9433 29.7227 33.8486 29.2383C33.6891 28.4227 33.2853 27.6133 31.708 27.6133H26.2353C24.2268 27.6133 22.5986 29.2415 22.5986 31.25V35.2411C22.5986 36.0869 23.2842 36.7724 24.1299 36.7724H30.3411C31.7303 36.7724 32.9369 35.993 33.5491 34.848C33.5966 34.7593 33.7313 34.7938 33.7313 34.8945C33.7313 35.9274 34.5764 36.7724 35.6093 36.7724C36.1507 36.7724 36.5936 36.3295 36.5936 35.788V31.6231C36.5938 30.642 35.7377 29.9288 34.8868 29.9942Z" fill="#365E7D"/>
<path d="M25.6856 35.2411V31.25C25.6856 29.2415 27.3138 27.6133 29.3223 27.6133H26.2353C24.2268 27.6133 22.5986 29.2415 22.5986 31.25V35.2411C22.5986 36.0868 23.2842 36.7724 24.1299 36.7724H27.2169C26.3711 36.7723 25.6856 36.0868 25.6856 35.2411Z" fill="#2B4D66"/>
</g>
<defs>
<clipPath id="clip0_217_619">
<rect width="60" height="60" fill="white"/>
</clipPath>
</defs>
</svg>
